<svg id="Layer_1" data-name="Layer 1" xmlns="http://www.w3.org/2000/svg" viewBox="0 0 100 100"><defs><style>.cls-1{fill:#008ace;}.cls-2{fill:#1c3140;}</style></defs><title>171012_Zenmate</title><g id="Layer_2" data-name="Layer 2"><g id="Ebene_1" data-name="Ebene 1"><g id="Logo"><path id="Fill-1" class="cls-1" d="M35.49,23.14A2.34,2.34,0,0,0,34,25.51c.47,5.4,2.89,22.73,14.64,30.78a2.44,2.44,0,0,0,2.75,0c11.75-8,14.17-25.4,14.64-30.78a2.34,2.34,0,0,0-1.49-2.37c-7.39-2.9-21.65-2.9-29,0ZM50.56,53.3a.86.86,0,0,1-1.07,0c-7.78-5.94-11.38-17.38-12.43-27a.86.86,0,0,1,.6-.9,44.59,44.59,0,0,1,24.71,0,.86.86,0,0,1,.61.9c-1,9.58-4.67,21-12.43,26.94Z"/><path id="Fill-2" class="cls-1" d="M50,26.61a42.37,42.37,0,0,0-9.29,1,.55.55,0,0,0-.43.62c1.11,7.44,3.91,16.06,9.34,21.32a.57.57,0,0,0,.8,0c5.43-5.27,8.24-13.88,9.34-21.29a.55.55,0,0,0-.43-.62A41.33,41.33,0,0,0,50,26.61Zm1,17.65a.54.54,0,0,1-.6.21A.53.53,0,0,1,50,44V30a.52.52,0,0,1,.16-.37.54.54,0,0,1,.38-.15,38.94,38.94,0,0,1,5.33.48.54.54,0,0,1,.35.22.51.51,0,0,1,.09.4A38.67,38.67,0,0,1,51,44.24Z"/></g><path id="ZenMate" class="cls-2" d="M17.32,78.81H6V77l8-11.8H6.22V63H17.1v1.82L9.1,76.6h8.22Zm7.75.22A5.79,5.79,0,0,1,20.7,77.4a6.14,6.14,0,0,1-1.57-4.48,6.78,6.78,0,0,1,1.46-4.61,5,5,0,0,1,4-1.67,4.93,4.93,0,0,1,3.74,1.44,5.5,5.5,0,0,1,1.37,4v1.37h-8a3.93,3.93,0,0,0,.94,2.66,3.28,3.28,0,0,0,2.5.93,9.22,9.22,0,0,0,2-.2,10.33,10.33,0,0,0,2-.67v2.08a7.81,7.81,0,0,1-1.88.63,11.54,11.54,0,0,1-2.17.19ZM24.6,68.56a2.55,2.55,0,0,0-1.94.77,3.66,3.66,0,0,0-.86,2.24h5.43a3.31,3.31,0,0,0-.71-2.24,2.44,2.44,0,0,0-1.9-.76ZM43.12,78.81H40.59V71.46A3.22,3.22,0,0,0,40,69.39a2.15,2.15,0,0,0-1.77-.68,2.82,2.82,0,0,0-2.36,1,5.22,5.22,0,0,0-.74,3.19v6H32.62v-12h2L35,68.42h.13a3.54,3.54,0,0,1,1.54-1.32,5.17,5.17,0,0,1,2.21-.47q4.31,0,4.31,4.38Zm10.91,0-5.87-14.6h-.09q.09,1.34.09,2.75V78.81H47.1V63h1.72l5.6,13.91h.06L60.08,63h1.67V78.81H60.63v-12q0-1.25.13-2.58h-.08L54.77,78.83Zm19,0L72.79,77h-.05a5.6,5.6,0,0,1-1.82,1.61A4.87,4.87,0,0,1,68.7,79a3.83,3.83,0,0,1-2.7-.89,3.17,3.17,0,0,1-1-2.45A3,3,0,0,1,66.48,73a7.81,7.81,0,0,1,4.15-1l2.24-.06v-.78a4,4,0,0,0-.68-2.53,2.63,2.63,0,0,0-2.2-.86,7.35,7.35,0,0,0-3.38.91l-.4-.93A9,9,0,0,1,70,66.84a3.81,3.81,0,0,1,2.89,1,4.43,4.43,0,0,1,1,3.14v7.82Zm-4.33-.76A3.75,3.75,0,0,0,72.79,74V72.83l-2.05.09a7.77,7.77,0,0,0-3.53.78,2.23,2.23,0,0,0-1.05,2,2.19,2.19,0,0,0,.68,1.72,2.75,2.75,0,0,0,1.91.61Zm12,0a8,8,0,0,0,1.77-.17v.86a5.67,5.67,0,0,1-1.8.26,2.93,2.93,0,0,1-2.3-.83,3.86,3.86,0,0,1-.74-2.62V68H76v-.63l1.72-.49.54-2.66h.55v2.85h3.44V68H78.8v7.44a3.4,3.4,0,0,0,.48,2,1.72,1.72,0,0,0,1.49.65Zm9.07,1a5.08,5.08,0,0,1-4-1.58A6.49,6.49,0,0,1,84.4,73a6.89,6.89,0,0,1,1.39-4.5,4.57,4.57,0,0,1,3.73-1.69,4,4,0,0,1,3.28,1.45A6,6,0,0,1,94,72.22v.86H85.55a5.55,5.55,0,0,0,1.13,3.7,4,4,0,0,0,3.17,1.29,9.85,9.85,0,0,0,1.77-.14,10.76,10.76,0,0,0,1.93-.61v1a8.61,8.61,0,0,1-1.84.59,10.21,10.21,0,0,1-1.86.16Zm-.3-11.25a3.52,3.52,0,0,0-2.73,1.12,5.27,5.27,0,0,0-1.2,3.23h7.27A5.12,5.12,0,0,0,92,68.93a2.93,2.93,0,0,0-2.45-1.15Z"/></g></g></svg>