<?xml version="1.0" encoding="utf-8"?>
<!-- Generator: Adobe Illustrator 14.0.0, SVG Export Plug-In . SVG Version: 6.00 Build 43363)  -->
<!DOCTYPE svg PUBLIC "-//W3C//DTD SVG 1.1//EN" "http://www.w3.org/Graphics/SVG/1.1/DTD/svg11.dtd">
<svg version="1.1" id="Ebene_1" xmlns="http://www.w3.org/2000/svg" xmlns:xlink="http://www.w3.org/1999/xlink" x="0px" y="0px"
	 width="795px" height="601px" viewBox="0 0 795 601" enable-background="new 0 0 795 601" xml:space="preserve">
<path fill="#BD2A33" d="M736.376,302.776c-6.748,10.174-14.829,20.06-24.283,29.514C647.7,396.671,527.299,436.678,397.861,436.678
	c-129.437,0-249.842-40.007-314.229-104.388c-9.459-9.454-17.552-19.34-24.283-29.514H33.136
	c7.093,10.868,15.729,21.415,25.835,31.523c68.977,68.972,198.824,111.82,338.891,111.82c167.257,0,310.166-59.774,364.814-143.344
	H736.376z"/>
<path fill="#BD2A33" d="M397.861,18.352c129.438,0,249.839,39.993,314.231,104.385c9.255,9.249,17.193,18.907,23.839,28.859h26.214
	c-7.021-10.635-15.49-20.963-25.41-30.884C667.77,51.75,537.914,8.898,397.861,8.898c-140.066,0-269.914,42.852-338.891,111.814
	c-9.915,9.921-18.386,20.254-25.391,30.884h26.564C112.936,73.698,244.358,18.352,397.861,18.352"/>
<path fill="#FCC000" d="M396.819,332.974c-0.379,0-0.746,0.028-1.119,0.051c-3.132,0.382-6.17,1.452-8.901,3.298
	c2.936,0.398,6.298,0.66,10.02,0.717V332.974z"/>
<path fill="#FCC000" d="M383.499,335.747c0.361-0.302,0.746-0.599,1.139-0.883c-0.375,0.113-0.734,0.25-1.11,0.358
	c-0.342,0.108-0.681,0.223-1.014,0.324c0.228,0.068,0.467,0.108,0.706,0.16C383.308,335.718,383.411,335.735,383.499,335.747"/>
<path fill="#FCC000" d="M383.425,339.084c-0.846,0.859-1.617,1.788-2.335,2.756c-0.279,0.359-0.552,0.74-0.809,1.116
	c-0.205,0.308-0.41,0.621-0.601,0.94c0.39,0.028,0.78,0.063,1.17,0.091c0.49,0.028,0.98,0.08,1.484,0.114
	c4.664,0.296,9.522,0.467,14.485,0.478v-5.057c-4.619-0.046-8.898-0.438-12.591-1.1
	C383.966,338.651,383.687,338.833,383.425,339.084"/>
<path fill="#FCC000" d="M366.588,342.455c2.397-2.42,5.248-4.544,8.479-6.327c0.18-0.091,0.356-0.205,0.53-0.296
	c-0.068-0.051-0.145-0.085-0.228-0.125c-0.151,0.04-0.308,0.091-0.467,0.137c-5.219,1.435-10.006,3.331-14.063,5.66
	C362.664,341.84,364.601,342.153,366.588,342.455"/>
<path fill="#FCC000" d="M375.247,343.521c0.461,0.028,0.934,0.068,1.395,0.113c0.105,0.023,0.217,0.023,0.319,0.04
	c0.373-0.672,0.789-1.315,1.208-1.947c0.256-0.388,0.527-0.758,0.8-1.134c0.268-0.376,0.546-0.734,0.829-1.07
	c0.484-0.604,0.991-1.162,1.509-1.709c-0.268-0.057-0.536-0.142-0.792-0.204c-0.427-0.103-0.877-0.211-1.267-0.331
	c-0.19-0.057-0.356-0.137-0.546-0.193c-0.065,0.022-0.134,0.057-0.205,0.085c-0.373,0.166-0.752,0.371-1.125,0.547
	c-0.373,0.194-0.723,0.41-1.09,0.599c-2.415,1.326-4.607,2.847-6.549,4.567C371.522,343.121,373.371,343.326,375.247,343.521"/>
<path fill="#FCC000" d="M415.006,343.999c0.49-0.04,1.003-0.063,1.47-0.103c0.113,0,0.205-0.023,0.308-0.023
	c-0.046-0.091-0.097-0.171-0.148-0.25c-0.25-0.388-0.535-0.74-0.809-1.122c-0.273-0.37-0.523-0.752-0.809-1.11
	c-0.575-0.718-1.185-1.401-1.834-2.039c-0.382-0.376-0.797-0.666-1.185-1.008c-3.701,0.688-8.029,1.099-12.688,1.179v5.057
	c4.978-0.034,9.728-0.205,14.203-0.478C414.01,344.067,414.505,344.033,415.006,343.999"/>
<path fill="#FCC000" d="M417.113,340.035c0.012,0.017,0.028,0.045,0.051,0.057c0.291,0.364,0.53,0.746,0.814,1.128
	c0.547,0.763,1.065,1.561,1.55,2.403c0.443-0.046,0.911-0.074,1.354-0.126c1.971-0.205,3.907-0.409,5.747-0.648
	c-2.033-1.817-4.362-3.429-6.92-4.767c-0.376-0.205-0.706-0.422-1.093-0.615c-0.376-0.188-0.764-0.325-1.15-0.501l0,0
	c-0.239,0.085-0.456,0.176-0.707,0.256c-0.398,0.114-0.837,0.228-1.253,0.342c-0.147,0.046-0.313,0.079-0.467,0.125
	c0.438,0.438,0.849,0.923,1.253,1.396C416.566,339.392,416.852,339.705,417.113,340.035"/>
<path fill="#FCC000" d="M366.676,378.527c-0.06-0.058-0.105-0.103-0.166-0.166c-1.842,0.273-3.645,0.559-5.353,0.866
	c4.049,2.278,8.807,4.117,13.967,5.524c0.017,0.011,0.048,0.011,0.071,0.028c-0.023-0.018-0.04-0.028-0.065-0.046
	C371.97,383.009,369.102,380.947,366.676,378.527"/>
<path fill="#FCC000" d="M429.762,342.278c0.034,0.034,0.057,0.063,0.097,0.103c1.816-0.29,3.571-0.58,5.239-0.888
	c-4.077-2.369-8.873-4.26-14.123-5.695c-0.103-0.028-0.211-0.063-0.308-0.091c0.091,0.063,0.182,0.113,0.273,0.147
	C424.243,337.632,427.228,339.75,429.762,342.278"/>
<path fill="#FCC000" d="M412.763,335.673c0.318-0.058,0.604-0.137,0.899-0.199c-0.433-0.154-0.871-0.297-1.31-0.428
	c-0.251-0.068-0.479-0.171-0.729-0.228c0.376,0.262,0.695,0.598,1.06,0.871C412.711,335.689,412.739,335.689,412.763,335.673"/>
<path fill="#FCC000" d="M400.148,332.99c-0.279-0.017-0.559-0.028-0.838-0.028v4.055c3.839-0.063,7.182-0.324,10.029-0.752
	C406.498,334.431,403.377,333.326,400.148,332.99"/>
<path fill="#FCC000" d="M396.819,387.633v-3.85c-3.565,0.04-6.783,0.273-9.616,0.672
	C390.148,386.346,393.425,387.417,396.819,387.633"/>
<path fill="#FCC000" d="M412.409,385.059c-0.455,0.376-0.883,0.798-1.372,1.105c0.336-0.092,0.678-0.165,1.002-0.263
	c0.575-0.165,1.122-0.358,1.686-0.546c-0.382-0.092-0.752-0.194-1.156-0.263C412.523,385.093,412.472,385.07,412.409,385.059"/>
<path fill="#FCC000" d="M414.903,379.318c0.279-0.342,0.559-0.694,0.832-1.076c0.273-0.358,0.535-0.74,0.785-1.133
	c0.046-0.052,0.074-0.114,0.114-0.154c-0.068-0.028-0.137-0.028-0.211-0.028c-0.495-0.034-0.99-0.068-1.486-0.103
	c-0.489-0.046-0.979-0.068-1.48-0.103c-4.556-0.308-9.306-0.473-14.146-0.49v5.069c4.602,0.063,8.885,0.467,12.552,1.133
	C412.95,381.494,413.964,380.463,414.903,379.318"/>
<path fill="#FCC000" d="M399.311,387.701c3.525-0.222,6.857-1.321,9.802-3.206c-2.871-0.404-6.168-0.66-9.802-0.7V387.701z"/>
<path fill="#FCC000" d="M380.922,376.824c-0.378,0.017-0.734,0.057-1.102,0.08c0.185,0.296,0.385,0.563,0.584,0.843
	c0.256,0.387,0.524,0.763,0.803,1.127c0.689,0.911,1.418,1.783,2.213,2.574c0.324,0.33,0.709,0.581,1.053,0.877
	c3.756-0.644,8.03-0.996,12.347-1.048v-5.046c-4.952,0.018-9.787,0.183-14.417,0.49
	C381.896,376.756,381.406,376.778,380.922,376.824"/>
<path fill="#FCC000" d="M383.103,385.127c-0.199,0.034-0.39,0.092-0.589,0.12c0.279,0.108,0.561,0.188,0.852,0.284
	c0.583,0.183,1.167,0.404,1.763,0.564c-0.467-0.319-0.883-0.74-1.324-1.1C383.576,385.042,383.325,385.07,383.103,385.127"/>
<path fill="#FCC000" d="M78.63,302.776c4.775,6.267,10.128,12.429,16.105,18.397c61.554,61.562,177.696,99.786,303.126,99.786
	c143.401,0,266.765-48.794,319.5-118.184H78.63z M362.493,308.325l13.648,24.603c2.192-0.569,4.465-1.036,6.811-1.424l14.858-23.155
	l15.191,23.133c2.301,0.376,4.556,0.843,6.73,1.4l13.629-24.557l22.614,41.71h-1.424h-1.424h-4.949h-1.463h-1.526
	c-0.695-0.957-1.458-1.879-2.353-2.768c-1.378-1.373-3.001-2.643-4.743-3.844c-1.994,0.415-4.056,0.809-6.254,1.179
	c1.424,1.708,2.574,3.536,3.491,5.433h-2.898c-0.974-1.754-2.152-3.411-3.6-4.988c-2.072,0.296-4.196,0.563-6.406,0.797
	c-0.467,0.051-0.939,0.097-1.412,0.137c-0.074,0-0.154,0.022-0.239,0.022c0.62,1.287,1.133,2.637,1.589,4.032h-0.183h-1.128h-1.332
	c-0.444-1.299-0.957-2.574-1.566-3.781c-1.025,0.091-2.067,0.153-3.115,0.228c-0.501,0.034-0.979,0.08-1.48,0.114
	c-0.489,0.028-0.991,0.057-1.48,0.074c-4.123,0.25-8.395,0.381-12.769,0.415v2.95h-1.25h-1.241v-2.95
	c-4.479-0.022-8.841-0.165-13.053-0.415c-0.484-0.018-0.991-0.046-1.469-0.074c-0.501-0.034-0.991-0.08-1.486-0.114
	c-0.829-0.063-1.652-0.103-2.455-0.182c-0.584,1.195-1.079,2.437-1.486,3.735h-1.33h-1.278c0.077-0.233,0.134-0.473,0.216-0.712
	c0.368-1.099,0.78-2.21,1.253-3.263c-0.202-0.012-0.401-0.023-0.606-0.058c-0.461-0.034-0.937-0.085-1.393-0.125
	c-2.135-0.233-4.194-0.484-6.199-0.774c-1.418,1.566-2.577,3.212-3.522,4.932h-2.864c0.928-1.896,2.07-3.679,3.448-5.348
	c-2.375-0.37-4.613-0.791-6.754-1.247c-1.779,1.225-3.451,2.512-4.857,3.918c-0.857,0.866-1.586,1.766-2.281,2.677h-1.526h-1.452
	h-4.998h-1.424h-1.429L362.493,308.325z M448.344,366.551l-2.402,0.256l-4.3-4.402v4.249h-3.787v-12.119l6.726,7.062v-6.737h3.741
	L448.344,366.551z M424.152,366.653h-4.061V354.83h4.061V366.653z M401.036,364.421c0.53,0,1.498-0.205,1.498-0.627v-8.936h3.771
	v9.762c0,0.586-1.23,2.307-5.269,2.307c-4.043,0-5.233-1.721-5.233-2.272v-9.796h3.799v8.936
	C399.602,364.216,400.484,364.421,401.036,364.421 M382.169,366.551l-2.395,0.256l-4.317-4.402v4.249h-3.784v-12.119l6.723,7.062
	v-6.737h3.756L382.169,366.551z M358.196,359.888v2.403h-4.624v1.879h5.259l-0.234,2.483h-9.092V354.83h9.735l0.236,2.455h-5.905
	v2.603H358.196z M336.094,364.797c0,0.563-1.09,2.175-5.282,2.187c-4.038,0-6.236-1.828-6.236-6.19c0-4.755,2.152-6.236,6.455-6.236
	c1.746,0,2.688,0.068,3.884,0.444l-0.624,2.46c-1.031-0.238-2.021-0.381-2.665-0.381c-2.35,0-2.99,0.62-2.99,3.713
	c0,3.286,1.347,3.696,2.605,3.696c1.307,0,1.604-0.394,1.604-0.74v-0.889h-1.504l0.163-1.816h4.59V364.797z M433.241,412.634
	l-13.713-24.921c-2.13,0.529-4.317,0.974-6.556,1.333l-15.151,23.292l-15.197-23.372c-2.153-0.364-4.24-0.774-6.271-1.281
	l-13.75,24.949l-22.894-41.744h1.415h1.418h5.387h1.495h1.609c0.606,0.786,1.213,1.544,1.948,2.272
	c1.486,1.492,3.26,2.854,5.154,4.129c2.047-0.41,4.166-0.809,6.393-1.15c-1.358-1.674-2.478-3.439-3.372-5.251h2.91
	c0.939,1.663,2.087,3.275,3.471,4.807c1.948-0.262,3.935-0.513,5.977-0.729c0.467-0.046,0.923-0.097,1.387-0.143
	c0.316-0.028,0.626-0.085,0.94-0.097c-0.339-0.718-0.652-1.446-0.94-2.198c-0.196-0.535-0.373-1.094-0.541-1.641h1.296h1.33
	c0.424,1.253,0.908,2.472,1.48,3.622c0.803-0.057,1.598-0.143,2.395-0.205c0.498-0.034,0.994-0.057,1.483-0.079
	c0.49-0.023,0.979-0.063,1.475-0.092c4.291-0.244,8.653-0.387,12.999-0.398v-2.848h1.241h1.25v2.848
	c4.352,0.012,8.605,0.154,12.723,0.388c0.484,0.028,0.979,0.04,1.464,0.079c0.501,0.023,0.985,0.068,1.48,0.103
	c1.031,0.08,2.056,0.148,3.047,0.239c0.609-1.179,1.173-2.38,1.629-3.656h1.287h0.877h0.416c-0.444,1.345-0.969,2.654-1.566,3.907
	c0.022,0,0.063,0,0.091,0.012c0.462,0.034,0.939,0.079,1.401,0.136c2.335,0.239,4.59,0.524,6.766,0.838
	c1.4-1.532,2.585-3.172,3.542-4.893h2.802c-0.899,1.846-2.039,3.622-3.429,5.331c2.119,0.336,4.101,0.706,6.015,1.116
	c2.881-1.953,5.302-4.101,7.106-6.447h1.492h1.492h5.359h1.43h1.412L433.241,412.634z M470.657,359.888v2.403h-4.625v1.879h5.269
	l-0.229,2.483h-9.095V354.83h9.738l0.229,2.455h-5.912v2.603H470.657z"/>
<path fill="#FCC000" d="M420.621,377.291c-0.421-0.028-0.831-0.074-1.241-0.103c-0.479,0.798-0.991,1.572-1.532,2.323
	c-0.273,0.365-0.523,0.752-0.814,1.111c-0.079,0.103-0.188,0.222-0.273,0.324c-0.193,0.233-0.404,0.438-0.604,0.678
	c-0.398,0.433-0.78,0.905-1.201,1.327c-0.034,0.045-0.097,0.079-0.131,0.103c0.153,0.051,0.318,0.097,0.479,0.125
	c0.433,0.114,0.871,0.222,1.264,0.336c0.296,0.086,0.524,0.188,0.792,0.279c0.051,0.017,0.097,0.028,0.142,0.04
	c0.354-0.154,0.707-0.291,1.049-0.468c0.387-0.188,0.745-0.37,1.104-0.569c2.614-1.384,4.988-2.989,7.039-4.812
	C424.733,377.735,422.7,377.502,420.621,377.291"/>
<path fill="#FCC000" d="M379.068,380.173c-0.276-0.376-0.55-0.734-0.806-1.128c-0.419-0.62-0.812-1.27-1.19-1.925
	c-0.202,0.012-0.407,0.046-0.624,0.068c-0.473,0.04-0.945,0.091-1.404,0.137c-1.808,0.177-3.594,0.376-5.313,0.593
	c1.959,1.736,4.18,3.28,6.612,4.612c0.362,0.205,0.723,0.398,1.091,0.587c0.373,0.193,0.751,0.358,1.133,0.553
	c0.04,0.011,0.08,0.033,0.117,0.045c0.145-0.045,0.29-0.097,0.436-0.137c0.41-0.125,0.817-0.256,1.247-0.364
	c0.339-0.097,0.701-0.165,1.051-0.262c-0.518-0.547-1.031-1.11-1.521-1.697C379.609,380.901,379.342,380.525,379.068,380.173"/>
<path fill="#FCC000" d="M429.858,378.436c-0.04,0.034-0.063,0.063-0.097,0.092c-2.403,2.392-5.233,4.425-8.332,6.145
	c4.983-1.412,9.488-3.24,13.338-5.428C433.195,378.966,431.544,378.681,429.858,378.436"/>
<path fill="#BD2A33" d="M373.655,333.594l-11.136-20.086l-19.793,36.527h4.998C352.376,342.883,361.708,337.039,373.655,333.594"/>
<path fill="#BD2A33" d="M351.223,374.944c-1.296-1.31-2.358-2.665-3.292-4.055h-5.387l20.066,36.573l11.279-20.479
	C364.506,384.342,356.505,380.229,351.223,374.944"/>
<path fill="#BD2A33" d="M444.597,345.502c1.441,1.436,2.586,2.973,3.582,4.533h4.949l-19.796-36.527l-11.122,20.058
	C431.47,336.202,439.369,340.269,444.597,345.502"/>
<path fill="#BD2A33" d="M444.591,375.047c-5.268,5.263-13.252,9.352-22.603,11.977l11.253,20.439l20.063-36.573h-5.359
	C447,372.313,445.93,373.715,444.591,375.047"/>
<path fill="#004677" d="M342.726,350.035l19.793-36.527l11.136,20.086c-11.948,3.445-21.279,9.289-25.932,16.441h1.452h1.526
	c0.694-0.911,1.423-1.811,2.281-2.677c1.406-1.406,3.078-2.693,4.857-3.918c2.142,0.456,4.379,0.877,6.754,1.247
	c-1.378,1.669-2.52,3.451-3.448,5.348h2.864c0.945-1.72,2.104-3.365,3.522-4.932c2.005,0.29,4.063,0.541,6.199,0.774
	c0.456,0.04,0.931,0.091,1.393,0.125c0.205,0.034,0.404,0.046,0.606,0.058c-0.473,1.053-0.885,2.164-1.253,3.263
	c-0.083,0.239-0.139,0.479-0.216,0.712h1.278h1.33c0.407-1.299,0.902-2.54,1.486-3.735c0.803,0.079,1.626,0.119,2.455,0.182
	c0.496,0.034,0.985,0.08,1.486,0.114c0.479,0.028,0.985,0.057,1.469,0.074c4.211,0.25,8.574,0.393,13.053,0.415v2.95h1.241h1.25
	v-2.95c4.374-0.034,8.646-0.165,12.769-0.415c0.489-0.018,0.991-0.046,1.48-0.074c0.501-0.034,0.979-0.08,1.48-0.114
	c1.048-0.074,2.09-0.137,3.115-0.228c0.609,1.207,1.122,2.482,1.566,3.781h1.332h1.128h0.183c-0.456-1.396-0.969-2.745-1.589-4.032
	c0.085,0,0.165-0.022,0.239-0.022c0.473-0.04,0.945-0.086,1.412-0.137c2.21-0.233,4.334-0.501,6.406-0.797
	c1.447,1.577,2.626,3.234,3.6,4.988h2.898c-0.917-1.896-2.067-3.725-3.491-5.433c2.198-0.37,4.26-0.764,6.254-1.179
	c1.742,1.201,3.365,2.471,4.743,3.844c0.895,0.889,1.657,1.811,2.353,2.768h1.526h1.463c-0.996-1.561-2.141-3.098-3.582-4.533
	c-5.228-5.233-13.127-9.3-22.387-11.937l11.122-20.058l19.796,36.527h1.424h1.424l-22.614-41.71l-13.629,24.557
	c-2.175-0.558-4.43-1.024-6.73-1.4l-15.191-23.133l-14.858,23.155c-2.346,0.388-4.619,0.854-6.811,1.424l-13.648-24.603
	l-22.62,41.71h1.429H342.726z M366.588,342.455c-1.987-0.302-3.924-0.615-5.749-0.951c4.058-2.329,8.844-4.226,14.063-5.66
	c0.16-0.046,0.316-0.097,0.467-0.137c0.083,0.04,0.159,0.074,0.228,0.125c-0.174,0.091-0.35,0.205-0.53,0.296
	C371.836,337.911,368.985,340.035,366.588,342.455 M396.819,344.579c-4.963-0.011-9.821-0.182-14.485-0.478
	c-0.504-0.034-0.994-0.086-1.484-0.114c-0.39-0.028-0.78-0.063-1.17-0.091c0.19-0.319,0.396-0.633,0.601-0.94
	c0.256-0.376,0.53-0.757,0.809-1.116c0.718-0.968,1.489-1.896,2.335-2.756c0.262-0.251,0.541-0.433,0.803-0.661
	c3.693,0.661,7.973,1.054,12.591,1.1V344.579z M396.819,337.039c-3.722-0.057-7.084-0.318-10.02-0.717
	c2.73-1.846,5.769-2.916,8.901-3.298c0.373-0.022,0.74-0.051,1.119-0.051V337.039z M409.34,336.265
	c-2.848,0.428-6.19,0.689-10.029,0.752v-4.055c0.279,0,0.559,0.012,0.838,0.028C403.377,333.326,406.498,334.431,409.34,336.265
	 M435.098,341.493c-1.668,0.308-3.423,0.598-5.239,0.888c-0.04-0.039-0.063-0.068-0.097-0.103c-2.534-2.528-5.519-4.646-8.821-6.424
	c-0.092-0.034-0.183-0.085-0.273-0.147c0.097,0.028,0.205,0.063,0.308,0.091C426.225,337.233,431.021,339.124,435.098,341.493
	 M415.507,337.563c0.416-0.114,0.854-0.228,1.253-0.342c0.251-0.08,0.468-0.171,0.707-0.256l0,0c0.387,0.176,0.774,0.313,1.15,0.501
	c0.387,0.193,0.717,0.41,1.093,0.615c2.558,1.338,4.887,2.949,6.92,4.767c-1.84,0.239-3.776,0.443-5.747,0.648
	c-0.443,0.052-0.911,0.08-1.354,0.126c-0.484-0.843-1.003-1.641-1.55-2.403c-0.284-0.382-0.523-0.764-0.814-1.128
	c-0.022-0.012-0.039-0.04-0.051-0.057c-0.262-0.33-0.547-0.644-0.82-0.951c-0.404-0.473-0.814-0.957-1.253-1.396
	C415.194,337.643,415.359,337.609,415.507,337.563 M415.826,342.501c0.273,0.382,0.559,0.734,0.809,1.122
	c0.052,0.079,0.103,0.159,0.148,0.25c-0.103,0-0.194,0.023-0.308,0.023c-0.467,0.039-0.979,0.063-1.47,0.103
	c-0.501,0.034-0.996,0.068-1.492,0.103c-4.476,0.272-9.226,0.443-14.203,0.478v-5.057c4.659-0.08,8.987-0.49,12.688-1.179
	c0.388,0.342,0.803,0.632,1.185,1.008c0.649,0.638,1.259,1.321,1.834,2.039C415.303,341.749,415.553,342.131,415.826,342.501
	 M413.662,335.474c-0.296,0.063-0.581,0.142-0.899,0.199c-0.023,0.017-0.052,0.017-0.08,0.017c-0.364-0.273-0.684-0.609-1.06-0.871
	c0.251,0.057,0.479,0.159,0.729,0.228C412.791,335.177,413.229,335.319,413.662,335.474 M383.527,335.223
	c0.376-0.108,0.735-0.245,1.11-0.358c-0.393,0.284-0.777,0.581-1.139,0.883c-0.088-0.012-0.191-0.029-0.279-0.04
	c-0.239-0.052-0.478-0.092-0.706-0.16C382.847,335.445,383.186,335.331,383.527,335.223 M376.281,338.315
	c0.367-0.188,0.717-0.404,1.09-0.599c0.373-0.176,0.752-0.381,1.125-0.547c0.071-0.028,0.14-0.063,0.205-0.085
	c0.19,0.057,0.356,0.137,0.546,0.193c0.39,0.12,0.84,0.229,1.267,0.331c0.256,0.063,0.524,0.147,0.792,0.204
	c-0.519,0.547-1.025,1.105-1.509,1.709c-0.282,0.336-0.561,0.694-0.829,1.07c-0.273,0.376-0.544,0.746-0.8,1.134
	c-0.418,0.632-0.834,1.275-1.208,1.947c-0.102-0.017-0.213-0.017-0.319-0.04c-0.461-0.045-0.934-0.085-1.395-0.113
	c-1.876-0.194-3.725-0.399-5.516-0.638C371.673,341.162,373.866,339.642,376.281,338.315"/>
<path fill="#004677" d="M454.734,370.89h-1.43l-20.063,36.573l-11.253-20.439c9.351-2.625,17.335-6.714,22.603-11.977
	c1.339-1.332,2.409-2.733,3.354-4.157h-1.492h-1.492c-1.805,2.347-4.226,4.494-7.106,6.447c-1.914-0.41-3.896-0.78-6.015-1.116
	c1.39-1.709,2.529-3.485,3.429-5.331h-2.802c-0.957,1.721-2.142,3.36-3.542,4.893c-2.176-0.313-4.431-0.599-6.766-0.838
	c-0.462-0.057-0.939-0.102-1.401-0.136c-0.028-0.012-0.068-0.012-0.091-0.012c0.598-1.253,1.122-2.563,1.566-3.907h-0.416h-0.877
	h-1.287c-0.456,1.276-1.02,2.478-1.629,3.656c-0.991-0.091-2.016-0.159-3.047-0.239c-0.495-0.034-0.979-0.079-1.48-0.103
	c-0.484-0.039-0.979-0.051-1.464-0.079c-4.117-0.233-8.371-0.376-12.723-0.388v-2.848h-1.25h-1.241v2.848
	c-4.345,0.012-8.708,0.154-12.999,0.398c-0.496,0.029-0.985,0.068-1.475,0.092c-0.49,0.022-0.985,0.045-1.483,0.079
	c-0.797,0.063-1.592,0.148-2.395,0.205c-0.572-1.15-1.056-2.369-1.48-3.622h-1.33h-1.296c0.168,0.547,0.345,1.105,0.541,1.641
	c0.288,0.752,0.601,1.48,0.94,2.198c-0.313,0.012-0.624,0.068-0.94,0.097c-0.464,0.046-0.919,0.097-1.387,0.143
	c-2.042,0.216-4.029,0.467-5.977,0.729c-1.384-1.531-2.532-3.144-3.471-4.807h-2.91c0.894,1.812,2.013,3.577,3.372,5.251
	c-2.227,0.342-4.345,0.74-6.393,1.15c-1.894-1.275-3.667-2.637-5.154-4.129c-0.735-0.729-1.341-1.486-1.948-2.272h-1.609h-1.495
	c0.934,1.39,1.996,2.745,3.292,4.055c5.282,5.285,13.283,9.397,22.666,12.04l-11.279,20.479l-20.066-36.573h-1.418h-1.415
	l22.894,41.744l13.75-24.949c2.03,0.507,4.118,0.917,6.271,1.281l15.197,23.372l15.151-23.292c2.238-0.359,4.426-0.804,6.556-1.333
	l13.713,24.921l22.905-41.744H454.734z M429.762,378.527c0.034-0.029,0.057-0.058,0.097-0.092c1.686,0.245,3.337,0.53,4.909,0.809
	c-3.85,2.188-8.354,4.016-13.338,5.428C424.528,382.952,427.358,380.919,429.762,378.527 M399.311,376.231
	c4.841,0.018,9.591,0.183,14.146,0.49c0.501,0.034,0.991,0.057,1.48,0.103c0.496,0.034,0.991,0.068,1.486,0.103
	c0.074,0,0.143,0,0.211,0.028c-0.04,0.04-0.068,0.103-0.114,0.154c-0.25,0.393-0.512,0.774-0.785,1.133
	c-0.273,0.382-0.553,0.734-0.832,1.076c-0.939,1.145-1.953,2.176-3.041,3.115c-3.667-0.666-7.95-1.07-12.552-1.133V376.231z
	 M399.311,383.795c3.634,0.04,6.931,0.296,9.802,0.7c-2.944,1.885-6.276,2.984-9.802,3.206V383.795z M387.204,384.455
	c2.833-0.398,6.051-0.632,9.616-0.672v3.85C393.425,387.417,390.148,386.346,387.204,384.455 M380.922,376.824
	c0.484-0.046,0.974-0.068,1.481-0.103c4.63-0.308,9.465-0.473,14.417-0.49v5.046c-4.317,0.052-8.591,0.404-12.347,1.048
	c-0.344-0.296-0.729-0.547-1.053-0.877c-0.794-0.791-1.523-1.663-2.213-2.574c-0.279-0.364-0.546-0.74-0.803-1.127
	c-0.199-0.279-0.399-0.547-0.584-0.843C380.188,376.881,380.543,376.841,380.922,376.824 M361.158,379.228
	c1.708-0.308,3.511-0.593,5.353-0.866c0.06,0.063,0.105,0.108,0.166,0.166c2.426,2.42,5.293,4.481,8.454,6.207
	c0.025,0.018,0.042,0.028,0.065,0.046c-0.023-0.018-0.054-0.018-0.071-0.028C369.965,383.345,365.207,381.506,361.158,379.228
	 M380.367,383.214c-0.43,0.108-0.837,0.239-1.247,0.364c-0.146,0.04-0.291,0.092-0.436,0.137c-0.037-0.012-0.077-0.034-0.117-0.045
	c-0.382-0.194-0.761-0.359-1.133-0.553c-0.368-0.188-0.729-0.382-1.091-0.587c-2.432-1.332-4.653-2.876-6.612-4.612
	c1.72-0.217,3.505-0.416,5.313-0.593c0.458-0.046,0.931-0.097,1.404-0.137c0.216-0.022,0.421-0.057,0.624-0.068
	c0.379,0.655,0.771,1.305,1.19,1.925c0.256,0.394,0.529,0.752,0.806,1.128c0.273,0.353,0.541,0.729,0.829,1.082
	c0.49,0.587,1.002,1.15,1.521,1.697C381.067,383.049,380.706,383.117,380.367,383.214 M382.514,385.247
	c0.199-0.028,0.39-0.086,0.589-0.12c0.222-0.057,0.473-0.085,0.701-0.131c0.441,0.359,0.857,0.78,1.324,1.1
	c-0.595-0.16-1.179-0.382-1.763-0.564C383.075,385.435,382.793,385.355,382.514,385.247 M412.039,385.901
	c-0.324,0.098-0.666,0.171-1.002,0.263c0.489-0.308,0.917-0.729,1.372-1.105c0.063,0.012,0.114,0.034,0.159,0.034
	c0.404,0.068,0.774,0.171,1.156,0.263C413.161,385.543,412.614,385.736,412.039,385.901 M418.549,383.367
	c-0.342,0.177-0.695,0.313-1.049,0.468c-0.045-0.012-0.091-0.023-0.142-0.04c-0.268-0.092-0.496-0.193-0.792-0.279
	c-0.393-0.114-0.831-0.222-1.264-0.336c-0.16-0.028-0.325-0.074-0.479-0.125c0.034-0.023,0.097-0.058,0.131-0.103
	c0.421-0.422,0.803-0.895,1.201-1.327c0.199-0.239,0.41-0.444,0.604-0.678c0.086-0.103,0.194-0.222,0.273-0.324
	c0.291-0.359,0.541-0.746,0.814-1.111c0.541-0.751,1.054-1.525,1.532-2.323c0.41,0.028,0.82,0.074,1.241,0.103
	c2.079,0.211,4.112,0.444,6.071,0.695c-2.051,1.822-4.425,3.428-7.039,4.812C419.294,382.997,418.936,383.18,418.549,383.367"/>
<path fill="#004677" d="M336.094,361.044v3.753c0,0.563-1.09,2.175-5.282,2.187c-4.038,0-6.236-1.828-6.236-6.19
	c0-4.755,2.152-6.236,6.455-6.236c1.746,0,2.688,0.068,3.884,0.444l-0.624,2.46c-1.031-0.238-2.021-0.381-2.665-0.381
	c-2.35,0-2.99,0.62-2.99,3.713c0,3.286,1.347,3.696,2.605,3.696c1.307,0,1.604-0.394,1.604-0.74v-0.889h-1.504l0.163-1.816H336.094z
	"/>
<polygon fill="#004677" points="358.832,364.17 358.598,366.653 349.506,366.653 349.506,354.83 359.241,354.83 359.478,357.285 
	353.572,357.285 353.572,359.888 358.196,359.888 358.196,362.291 353.572,362.291 353.572,364.17 "/>
<polygon fill="#004677" points="378.396,354.858 382.152,354.858 382.169,366.551 379.774,366.807 375.458,362.404 375.458,366.653 
	371.673,366.653 371.673,354.534 378.396,361.596 "/>
<path fill="#004677" d="M402.534,363.794v-8.936h3.771v9.762c0,0.586-1.23,2.307-5.269,2.307c-4.043,0-5.233-1.721-5.233-2.272
	v-9.796h3.799v8.936c0,0.422,0.883,0.627,1.435,0.627C401.566,364.421,402.534,364.216,402.534,363.794"/>
<rect x="420.092" y="354.83" fill="#004677" width="4.061" height="11.823"/>
<polygon fill="#004677" points="444.58,354.858 448.321,354.858 448.344,366.551 445.941,366.807 441.642,362.404 441.642,366.653 
	437.854,366.653 437.854,354.534 444.58,361.596 "/>
<polygon fill="#004677" points="471.301,364.17 471.072,366.653 461.978,366.653 461.978,354.83 471.716,354.83 471.944,357.285 
	466.032,357.285 466.032,359.888 470.657,359.888 470.657,362.291 466.032,362.291 466.032,364.17 "/>
<polygon fill="#FCC000" points="162.487,126.108 173.604,119.704 164.04,116.393 "/>
<path fill="#FCC000" d="M700.982,133.833C639.438,72.294,523.289,34.05,397.861,34.05c-125.431,0-241.573,38.244-303.126,99.783
	c-5.766,5.78-10.968,11.706-15.621,17.763h637.496C711.939,145.539,706.763,139.613,700.982,133.833 M201.617,115.738
	l-22.765,13.115l-0.601,0.35l-0.35-0.606l-0.479-0.846l-0.339-0.569l0.572-0.362l0.157-0.105c3.394-2.13,4.752-3.015,4.474-3.505
	c-0.1-0.163-0.507-1.068-4.83-2.455l-15.593,8.893c-0.433,2.631-0.74,5.026-0.578,5.487c0.199,0.305,1.347,0.168,5.652-2.147
	l0.595-0.319l0.331,0.589l0.495,0.837l0.339,0.601l-0.606,0.351l-14.257,8.218l-0.606,0.356l-0.35-0.612l-0.484-0.84l-0.322-0.566
	l0.539-0.362c3.422-2.309,3.685-3.807,4.325-7.446l5.342-27.299l0.165-0.285l-0.031-0.305l1.914-0.88l0.245-0.145l0.256-0.168
	c0,0,25.835,8.659,25.841,8.659c5.231,1.771,6.717,2.17,9.767,0.319l0.607-0.359l0.35,0.618l0.496,0.84l0.344,0.598L201.617,115.738
	z M242.934,76.864l4.177,11.646c0.863,2.426,0.891,6.315-1.902,9.291c-3.183,3.434-9.738,6.589-14.362,8.252
	c-4.642,1.654-11.285,3.574-16.615,3.3c-3.696-0.21-6.66-0.723-8.257-5.191L201.6,91.97c-0.829-2.321-2.036-2.064-6.483-0.723
	l-0.128,0.04l-0.632,0.193l-0.225-0.632l-0.328-0.908l-0.233-0.652l0.652-0.239l25.829-9.254l0.652-0.239l0.233,0.658l0.333,0.908
	l0.222,0.655l-0.629,0.239l-0.071,0.023c-5.168,1.976-6.6,2.659-5.737,5.103l4.385,12.204c0.362,1,0.968,2.702,2.816,3.576
	c2.17,1.02,5.47,0.746,9.838-0.828c12.947-4.636,11.114-9.733,10.339-11.903l-3.995-11.145c-0.519-1.438-0.997-2.799-7.908-0.507
	l-0.646,0.222l-0.228-0.641l-0.327-0.917l-0.234-0.658l0.655-0.233l16.806-6.031l0.658-0.233l0.233,0.661l0.333,0.914l0.222,0.612
	l-0.595,0.265C243.116,74.381,242.316,75.15,242.934,76.864 M305.857,66.824l-2.304,0.484l-0.53,0.117l-0.233-0.484
	c-2.537-5.045-9.949-3.873-15.157-2.927c0.741,3.474,4.095,19.283,4.095,19.283c0.513,2.415,1.458,2.415,7.714,1.295l0.667-0.117
	l0.139,0.661l0.205,0.943l0.151,0.689l-0.695,0.14l-28.341,6.014l-0.694,0.151l-0.14-0.684l-0.199-0.951l-0.134-0.652l0.649-0.168
	c6.111-1.546,6.957-1.925,6.444-4.3l-4.089-19.292c-5.447,1.324-12.475,3.209-12.737,8.847l-0.023,0.544l-0.529,0.111l-2.31,0.49
	l-0.7,0.146l-0.123-0.706l-1.384-7.668l-0.117-0.672l0.666-0.14l47.638-10.111l0.672-0.14l0.157,0.658l1.785,7.594l0.157,0.701
	L305.857,66.824z M375.33,78.211l-27.489,2.525l-0.695,0.066l-0.065-0.695l-0.085-0.962c0,0-0.065-0.658-0.023-0.664l0.664-0.1
	c4.285-0.629,6.526-1.04,6.381-2.648l-0.749-8.181l-18.096,1.66c0.1,1.179,0.754,8.195,0.754,8.195
	c0.146,1.609,2.42,1.598,6.811,1.435l0.652-0.028l0.065,0.658l0.085,0.968l0.065,0.692l-0.7,0.065l-27.228,2.509l-0.706,0.063
	l-0.057-0.695l-0.088-0.968l-0.051-0.652l0.635-0.1c4.496-0.698,6.176-1.107,6.028-2.617l-1.726-18.685
	c-0.145-1.643-2.5-1.657-6.076-1.486l-0.308,0.017l-0.667,0.028l-0.063-0.664l-0.083-0.968l-0.077-0.695l0.695-0.063l27.239-2.508
	l0.701-0.066l0.057,0.695l0.088,0.962l0.065,0.672l-0.666,0.08l-0.18,0.023c-3.744,0.473-6.398,0.934-6.236,2.637l0.678,7.295
	l18.09-1.668l-0.678-7.295c-0.151-1.703-2.839-1.666-6.612-1.446l-0.182,0.011l-0.669,0.037l-0.065-0.672l-0.091-0.968l-0.065-0.686
	l0.7-0.071l27.478-2.531l0.701-0.063l0.057,0.701l0.094,0.959c0,0,0.065,0.672,0.04,0.672l-0.669,0.088
	c-3.744,0.473-6.387,0.931-6.233,2.628l1.726,18.69c0.14,1.569,2.215,1.581,6.512,1.453h0.142l0.652-0.018l0.057,0.646l0.083,0.968
	l0.071,0.695L375.33,78.211z M438.464,70.927l-3.457,7.984l-0.188,0.444l-0.467-0.017L386.91,78.12l-0.698-0.017l0.023-0.695
	l0.023-0.974c0,0,0.011-0.667,0.077-0.667l0.664-0.017c4.852-0.117,6.421-0.285,6.466-1.894l0.484-18.779
	c0.048-1.726-2.344-1.993-6.279-2.209l-0.123-0.006l-0.683-0.04l0.022-0.672l0.023-0.974l0.023-0.701l0.695,0.017l46.786,1.196
	l0.701,0.023l-0.018,0.695l-0.199,7.802l-0.022,0.695l-0.701-0.011l-2.021-0.057l-0.495-0.015l-0.159-0.478
	c-1.595-5.143-6.994-6.193-17.757-6.467c-4.557-0.117-5.229,0.111-5.239,0.997l-0.217,8.295c7.848,0.162,10.809-1.063,11.891-4.94
	l0.148-0.519l0.547,0.006l2.102,0.051l0.712,0.023l-0.029,0.694l-0.336,13.11l-0.022,0.707l-0.694-0.018l-2.107-0.06l-0.569-0.011
	l-0.097-0.567c-0.689-3.975-3.68-5.456-11.624-5.737c-0.022,1.219-0.216,8.673-0.216,8.673c-0.023,0.407,0.103,0.575,0.205,0.692
	c0.678,0.717,3.343,0.883,5.865,0.939c6.993,0.188,15.701-0.35,20.969-6.088l0.217-0.233l0.324,0.006l2.267,0.051l1.031,0.037
	L438.464,70.927z M505.749,60.955l-0.131,0.963l-0.091,0.655l-0.661-0.06c-5.666-0.43-5.78,0.333-5.951,1.618l-3.132,22.614
	l-0.092,0.687l-0.694-0.085l-2.118-0.45l-0.223-0.057l-0.233,0.045l-32.119-25.112l-1.971,14.251
	c-0.262,1.962,0.251,2.871,6.561,4.078l0.661,0.123l-0.098,0.658l-0.131,0.962l-0.097,0.684l-0.694-0.094l-18.247-2.514l-0.7-0.085
	l0.091-0.695l0.137-0.962l0.103-0.646l0.649,0.045c5.097,0.421,6.509,0.276,6.76-1.498l2.449-17.799
	c-3.89-3.039-5.006-3.212-5.804-3.317l-0.684-0.1l0.092-0.687l0.137-0.962l0.103-0.695l0.672,0.1l16.982,2.332l0.176,0.028
	l0.154,0.117l24.836,19.607l1.452-10.521c0.205-1.481,0.398-2.876-6.39-4.052l-0.655-0.117l0.097-0.666l0.131-0.963l0.097-0.686
	l0.678,0.091l17.296,2.38l0.694,0.1L505.749,60.955z M559.971,83.601l-0.689-0.182l-2.278-0.601l-0.523-0.134v-0.535
	c0-5.646-7.136-7.936-12.222-9.431c-0.899,3.442-4.978,19.081-4.978,19.081c-0.632,2.392,0.205,2.813,6.299,4.619l0.661,0.199
	l-0.171,0.658l-0.251,0.934l-0.165,0.678l-0.684-0.176l-28.019-7.353l-0.672-0.188l0.182-0.669l0.239-0.939l0.177-0.655l0.649,0.148
	c6.15,1.364,7.084,1.404,7.688-0.946l4.989-19.086c-5.456-1.261-12.586-2.736-15.348,2.193l-0.257,0.467l-0.518-0.14l-2.284-0.595
	l-0.689-0.183l0.2-0.686l2.198-7.483l0.193-0.641l0.66,0.168l47.092,12.364l0.654,0.168l-0.159,0.667l-1.811,7.58L559.971,83.601z
	 M598.713,89.624l-0.358,0.911l-0.251,0.635l-0.644-0.239l-0.148-0.057c-3.77-1.39-6.492-2.241-7.136-0.583l-6.828,17.483
	c-0.626,1.608,1.681,2.693,5.814,4.473l0.609,0.268l-0.238,0.624l-0.359,0.903l-0.25,0.655l-0.644-0.256l-26.459-10.333
	l-0.655-0.256l0.257-0.655l0.364-0.897l0.228-0.624l0.638,0.214c4.157,1.418,6.544,2.141,7.164,0.589l6.823-17.483
	c0.609-1.586-1.891-2.805-5.496-4.345l-0.171-0.068l-0.62-0.268l0.25-0.624l0.348-0.905l0.256-0.646l0.655,0.256l26.453,10.333
	l0.649,0.25L598.713,89.624z M655.73,120.393l-4.63,7.808l-0.358,0.607l-0.599-0.362l-1.464-1.313l-0.256-0.174l-0.348-0.043
	c-0.614-3.667-3.804-11.173-11.891-15.982c-4.493-2.666-8.395-3.611-11.617-2.788c-2.626,0.669-4.898,2.56-6.709,5.615
	c-1.236,2.087-2.466,5.265-1.293,8.531c1.361,3.773,6.213,7.435,8.571,8.847c5.991,3.556,11.72,5.291,18.206,6.147l0.233,0.547
	l0.661-0.834l1.595,2.084l0.911,1.17l-1.498-0.051c-7.21-0.276-13.833-1.541-22.672-6.806
	c-17.711-10.533-21.971-21.433-18.337-27.555c1.264-2.136,3.428-3.639,6.27-4.362c6.584-1.68,16.146,1.036,26.146,6.993
	c1.635,0.968,3.053,2.438,4.408,3.457c2.09,1.575,4.266,2.525,5.712,3.79c1.196,1.056,2.13,1.885,2.717,2.229
	c1.64,0.979,2.289,1.153,3.383,0.774l0.558,0.345l0.177-0.444l1.885,0.817l0.604,0.356L655.73,120.393z"/>
<path fill="#BD2A33" d="M201.273,115.131l-22.777,13.116l-0.473-0.832c4.263-2.691,5.504-3.448,4.863-4.556
	c-0.524-0.911-4.2-2.104-5.803-2.62l-15.814,9.124c-0.573,3.551-0.909,5.572-0.601,6.116c0.735,1.276,4.169-0.566,6.595-1.874
	l0.484,0.834l-14.269,8.224l-0.484-0.84c3.639-2.455,3.966-4.169,4.63-7.907l5.009-27.416l1.97-1.13l25.835,8.665
	c5.236,1.78,7.021,2.27,10.35,0.25L201.273,115.131z M175.27,119.547l-11.797-4.089l-1.908,11.974L175.27,119.547z"/>
<path fill="#004677" d="M162.283,105.894l-5.348,27.899c-0.646,3.639-0.908,5.137-4.331,7.446l-0.544,0.373l1.162,2.008
	l15.482-8.924l-1.176-2.021l-0.595,0.313c-4.345,2.341-5.476,2.458-5.658,2.142c-0.022-0.077-0.04-0.199-0.04-0.356
	c0-0.846,0.319-2.811,0.675-5.037c0.117-0.009,15.524-8.881,15.524-8.881c3.918,1.492,4.712,2.138,4.852,2.355
	c0.279,0.49-1.085,1.375-4.474,3.511l-0.763,0.456l1.19,2.027l23.99-13.816l-1.19-2.056l-0.607,0.359
	c-3.049,1.851-4.542,1.452-9.767-0.319l-25.846-8.659L162.283,105.894z M164.942,105.977l25.28,8.719
	c4.277,1.452,6.504,1.714,9.012,0.812c-2.292,1.315-11.333,6.523-16.586,9.545c0.669-0.584,1.125-1.102,1.125-1.632
	c0-0.288-0.094-0.583-0.279-0.911c-0.479-0.829-2.275-1.674-6.193-2.927c-0.566,0.06-16.387,9.172-16.387,9.172l-0.279,0.171
	l-0.1,0.589c-0.678,4.234-0.874,5.609-0.467,6.31c0.583,1.008,1.919,0.792,3.434,0.262c-3.591,2.07-7.503,4.32-9.038,5.208
	c2.52-2.147,3.289-4.1,3.85-7.255l4.986-27.315L164.942,105.977z"/>
<path fill="#004677" d="M160.651,128.768l16.293-9.385l-14.024-4.849L160.651,128.768z M164.034,116.393
	c1.19,0.413,7.512,2.6,9.57,3.312c-1.942,1.113-9.251,5.325-11.117,6.398C162.815,124.043,163.834,117.628,164.034,116.393"/>
<path fill="#BD2A33" d="M247.117,71.855c-4.095,1.797-5.704,2.836-4.847,5.248l4.18,11.646c0.763,2.158,0.869,5.792-1.749,8.579
	c-3.121,3.334-9.519,6.421-14.089,8.064c-3.372,1.202-10.627,3.56-16.348,3.255c-3.778-0.205-6.216-0.774-7.64-4.718l-4.374-12.193
	c-1.096-3.075-3.106-2.432-7.458-1.119l-0.339-0.911l25.829-9.254l0.325,0.903c-5.003,1.919-7.358,2.813-6.205,6.025l4.374,12.198
	c0.749,2.079,2.549,7.116,13.548,3.172c13.454-4.815,11.598-10.467,10.758-12.794l-3.992-11.142c-0.8-2.229-2.158-3.144-8.779-0.928
	l-0.325-0.917l16.8-6.022L247.117,71.855z"/>
<path fill="#004677" d="M229.095,76.545l0.794,2.221l0.646-0.222c6.899-2.298,7.378-0.937,7.902,0.501l3.989,11.145
	c0.356,0.98,1.014,2.793,0.034,4.875c-1.247,2.648-4.729,5.009-10.368,7.028c-4.374,1.574-7.68,1.848-9.838,0.828
	c-1.854-0.874-2.455-2.571-2.816-3.576l-4.374-12.204c-0.88-2.443,0.564-3.126,5.721-5.103l0.706-0.262l-0.222-0.655l-0.572-1.561
	l-27.133,9.727l0.803,2.192l0.743-0.228c4.459-1.347,5.661-1.604,6.489,0.723l4.374,12.187c1.609,4.473,4.567,4.98,8.257,5.185
	c5.325,0.279,11.974-1.64,16.615-3.294c4.63-1.668,11.173-4.823,14.368-8.246c2.782-2.97,2.759-6.859,1.896-9.292l-4.183-11.651
	c-0.606-1.714,0.182-2.483,4.468-4.374l0.595-0.256l-0.783-2.187L229.095,76.545z M244.201,72.607
	c-1.646,0.928-2.859,1.902-2.859,3.32c0,0.424,0.088,0.885,0.273,1.41l4.183,11.646c0.262,0.746,0.43,1.657,0.43,2.625
	c0,1.72-0.53,3.639-2.033,5.242c-3.027,3.243-9.337,6.27-13.821,7.89c-4.519,1.609-10.977,3.482-16.065,3.212
	c-3.955-0.213-5.797-0.852-7.022-4.257l-4.379-12.193c-0.911-2.56-2.671-2.742-4.975-2.304c3.801-1.358,11.763-4.217,17.367-6.222
	c-1.196,0.78-1.891,1.674-1.891,2.933c0,0.501,0.111,1.068,0.345,1.703l4.374,12.198c0.401,1.133,1.156,3.244,3.534,4.368
	c2.503,1.185,6.17,0.928,10.9-0.769c6-2.153,9.755-4.758,11.168-7.757c1.225-2.594,0.401-4.857,0.011-5.942l-3.989-11.131
	c-0.857-2.392-2.881-2.813-6.41-2.079C236.63,75.332,241.163,73.703,244.201,72.607"/>
<path fill="#BD2A33" d="M299.775,86.224l-28.358,6.02l-0.205-0.945c5.749-1.464,7.646-1.942,6.968-5.131l-4.245-19.983
	c-5.527,1.327-13.662,3.257-13.967,9.662l-2.298,0.484l-1.387-7.668l47.655-10.111l1.774,7.591l-2.298,0.484
	c-2.876-5.726-11.102-4.18-16.609-3.172l4.24,19.992c0.683,3.218,2.603,2.896,8.525,1.842L299.775,86.224z"/>
<path fill="#004677" d="M255.477,68.117l1.634,9.046l3.528-0.746l0.022-0.544c0.268-5.644,7.295-7.512,12.743-8.835
	c0.279,1.324,4.095,19.28,4.095,19.28c0.074,0.362,0.122,0.672,0.122,0.957c0,1.563-1.401,2.03-6.578,3.349l-0.655,0.162
	l0.496,2.287l29.719-6.304l-0.495-2.298l-0.667,0.122c-6.262,1.114-7.207,1.119-7.708-1.295c0,0-3.366-15.832-4.089-19.254
	c5.213-0.945,12.608-2.147,15.146,2.898l0.239,0.484l3.522-0.752l-2.093-8.947L255.477,68.117z M303.414,59.378
	c0.233,0.997,1.213,5.188,1.458,6.227c-0.55,0.111-0.997,0.208-1.301,0.273c-3.027-4.929-9.755-4.268-15.08-3.34
	C295.057,61.143,303.001,59.463,303.414,59.378 M270.688,66.317c-5.023,1.358-10.516,3.636-11.205,8.921
	c-0.313,0.057-0.723,0.151-1.258,0.262c-0.185-1.054-0.957-5.302-1.136-6.304C257.462,69.122,264.99,67.521,270.688,66.317
	 M286.036,63.068l0.088,0.524l4.24,19.998c0.501,2.354,1.671,3.112,3.818,3.112c-5.749,1.213-13.71,2.904-18.545,3.938
	c2.001-0.752,3.371-1.634,3.371-3.366c0-0.373-0.045-0.786-0.139-1.242c0,0-4.328-20.328-4.368-20.527
	C279.965,64.35,286.036,63.068,286.036,63.068"/>
<path fill="#BD2A33" d="M375.264,77.513l-27.489,2.537l-0.088-0.968c4.271-0.626,7.238-1.056,7.022-3.411l-0.817-8.878
	l-19.482,1.791l0.823,8.875c0.222,2.363,3.224,2.247,7.529,2.076l0.088,0.968l-27.242,2.509l-0.085-0.962
	c4.257-0.664,6.828-1.102,6.618-3.377l-1.726-18.685c-0.228-2.506-3.716-2.267-7.122-2.104l-0.085-0.968l27.233-2.508l0.094,0.962
	c-3.548,0.444-7.255,0.866-7.022,3.411l0.735,7.99l19.471-1.788l-0.734-7.99c-0.234-2.548-3.947-2.287-7.523-2.07l-0.088-0.968
	l27.486-2.537l0.085,0.968c-3.468,0.438-7.09,0.88-6.862,3.4l1.72,18.685c0.216,2.31,3.061,2.204,7.372,2.076L375.264,77.513z"/>
<path fill="#004677" d="M344.603,53.324l0.233,2.332l0.857-0.054c3.767-0.219,6.438-0.245,6.595,1.452c0,0,0.566,6.136,0.672,7.295
	c-1.242,0.111-16.843,1.546-18.084,1.663c-0.105-1.162-0.677-7.389-0.677-7.429c0-1.586,2.585-2.042,6.213-2.503l0.874-0.103
	l-0.06-0.672l-0.157-1.657l-28.617,2.637l0.205,2.327l0.968-0.045c3.588-0.171,5.943-0.171,6.094,1.486l1.726,18.685
	c0.142,1.515-1.543,1.919-6.028,2.617l-0.649,0.1l0.205,2.315l28.634-2.637l-0.216-2.318l-0.684,0.028
	c-4.354,0.168-6.623,0.174-6.78-1.44c0,0-0.655-7.005-0.76-8.189c1.25-0.114,16.849-1.549,18.096-1.66
	c0.105,1.176,0.76,8.28,0.76,8.326c0,1.5-2.241,1.896-6.421,2.514l-0.655,0.088l0.199,2.326l28.885-2.665l-0.228-2.31l-0.771,0.018
	c-4.191,0.128-6.384,0.111-6.529-1.453l-1.726-18.685c-0.16-1.703,2.483-2.161,6.233-2.634l0.664-0.088l-0.034-0.672l-0.145-1.66
	L344.603,53.324z M368.43,52.524c-1.737,0.53-3.061,1.364-3.061,3.01c0,0.105,0.006,0.205,0.011,0.308l1.726,18.685
	c0.188,2.03,1.965,2.508,4.405,2.631c-4.539,0.413-14.343,1.318-19.491,1.803c2.007-0.539,3.399-1.336,3.399-3.033
	c0-0.1-0.005-0.211-0.017-0.322l-0.879-9.57l-20.872,1.919l0.886,9.576c0.188,2.013,1.976,2.509,4.362,2.628
	c-4.724,0.438-14.445,1.338-19.32,1.785c1.959-0.535,3.272-1.301,3.272-2.984c0-0.111-0.006-0.222-0.017-0.351l-1.726-18.685
	c-0.188-2.004-1.979-2.508-4.061-2.665c4.496-0.413,13.511-1.236,18.824-1.731c-1.742,0.524-3.072,1.358-3.072,3.007
	c0,0.1,0.006,0.205,0.017,0.31l0.8,8.682l20.857-1.917l-0.797-8.685c-0.183-1.982-1.979-2.506-4.101-2.666
	C354.406,53.825,363.282,53.002,368.43,52.524"/>
<path fill="#BD2A33" d="M387.605,51.188l46.792,1.202l-0.205,7.802l-2.016-0.052c-1.731-5.558-7.467-6.677-18.412-6.959
	c-4.453-0.108-5.923,0.006-5.969,1.674l-0.228,9.004c7.791,0.233,11.942-0.664,13.28-5.45l2.113,0.057l-0.336,13.115l-2.113-0.045
	c-0.849-4.889-4.948-6.154-12.979-6.364l-0.239,9.394c-0.045,1.703,1.47,2.213,6.755,2.347c7.938,0.21,16.235-0.589,21.504-6.322
	l2.267,0.057l-3.451,7.99l-47.442-1.213l0.026-0.974c4.63-0.117,7.141-0.162,7.207-2.571l0.496-18.779
	c0.057-2.56-3.349-2.728-7.073-2.939L387.605,51.188z"/>
<path fill="#004677" d="M386.87,52.823l0.786,0.046c3.949,0.216,6.341,0.484,6.299,2.215l-0.49,18.779
	c-0.045,1.603-1.614,1.771-6.472,1.888l-0.672,0.017l-0.063,0.667l-0.046,1.668l48.606,1.253l4.05-9.371l-3.292-0.088
	c-5.814,5.971-14.522,6.503-21.516,6.315c-2.522-0.057-5.193-0.222-5.865-0.939c0,0-0.205-0.097-0.205-0.692
	c0-0.589,0.171-6.86,0.216-8.657c7.894,0.299,10.935,1.757,11.612,5.721l0.097,0.567l3.395,0.083l0.37-14.505l-3.354-0.085
	l-0.148,0.524c-1.087,3.878-4.026,5.108-11.902,4.946c0.034-1.202,0.229-7.395,0.229-8.3c0-0.902,2.688-1.059,5.244-0.991
	c10.758,0.273,16.157,1.318,17.757,6.469l0.154,0.476l3.218,0.077l0.233-9.191l-48.182-1.236L386.87,52.823z M394.854,73.897
	c0,0,0.501-18.836,0.501-18.87c0-1.808-1.358-2.591-3.172-3.016c3.352,0.083,9.474,0.245,18.95,0.484
	c-1.709,0.04-2.808,0.208-3.417,0.792c0,0-0.615,0.612-0.615,1.546c0,0.94-0.513,18.585-0.513,19.716
	c0,1.133,0.593,1.686,0.593,1.686c0.558,0.583,1.776,0.894,3.474,1.102c-9.658-0.251-16.063-0.419-19.312-0.501
	C393.448,76.528,394.806,75.845,394.854,73.897 M436.071,71.063c-0.063,0.023-0.085,0.046-0.085,0.068
	c0,0.077,0.41,0.117,0.803,0.154c-0.586,1.333-2.58,5.966-2.876,6.646c-0.302-0.011-8.57-0.222-15.479-0.396
	C424.716,77.303,431.493,76.038,436.071,71.063 M421.259,59.125c0.319,0.008,0.547,0.014,0.985,0.025
	c-0.022,1.17-0.268,10.536-0.296,11.714c-0.438-0.011-0.666-0.011-0.997-0.017c-1.133-4.624-5.302-5.954-12.005-6.276
	C415.553,64.654,419.688,63.563,421.259,59.125 M416.02,52.624c8.417,0.222,17.147,0.444,17.66,0.456
	c-0.022,1.042-0.143,5.359-0.165,6.396c-0.433-0.011-0.684-0.017-0.968-0.017C430.656,54.443,425.313,53.02,416.02,52.624"/>
<path fill="#BD2A33" d="M446.511,78.271c4.863,0.396,7.152,0.444,7.506-2.093l2.511-18.207c-4.14-3.266-5.404-3.565-6.463-3.705
	l0.137-0.954l16.977,2.332l25.644,20.24l0.154,0.02l1.611-11.629c0.319-2.309-0.467-3.705-6.959-4.835l0.125-0.962l17.302,2.386
	l-0.137,0.962c-5.832-0.456-6.441,0.362-6.697,2.204l-3.127,22.621l-2.249-0.311l-32.911-25.744l-0.165-0.026l-2.113,15.368
	c-0.387,2.762,1.202,3.719,7.107,4.847l-0.131,0.962l-18.247-2.515L446.511,78.271z"/>
<path fill="#004677" d="M449.289,54.867l0.689,0.094c0.792,0.105,1.925,0.305,5.803,3.323c-0.113,0.789-2.454,17.8-2.454,17.8
	c-0.251,1.768-1.663,1.908-6.766,1.492l-0.655-0.045l-0.307,2.304l19.624,2.694l0.319-2.304l-0.649-0.128
	c-5.524-1.051-6.606-1.879-6.606-3.383c0-0.216,0.023-0.444,0.058-0.683c0,0,1.492-10.82,1.959-14.263
	c1.532,1.202,32.119,25.118,32.119,25.118c0.33,0.14,2.574,0.461,2.574,0.461l0.694,0.091l3.212-23.306
	c0.183-1.285,0.297-2.047,5.963-1.618l0.655,0.06l0.318-2.304l-18.668-2.571l-0.33,2.315l0.661,0.117
	c5.644,0.979,6.458,2.104,6.458,3.306c0,0.245-0.029,0.49-0.063,0.74c0,0-1.099,7.958-1.457,10.521
	c-1.521-1.202-24.836-19.602-24.836-19.602c-0.33-0.145-17.313-2.477-17.313-2.477l-0.695-0.1L449.289,54.867z M454.699,76.269
	l2.574-18.594l-0.313-0.248c-2.102-1.66-3.491-2.583-4.517-3.101c3.463,0.473,14.625,2.005,14.625,2.005
	c0,0.123,25.319,20.097,25.319,20.097l1.088,0.857l0.193-1.285l1.611-11.634c0.04-0.296,0.058-0.575,0.058-0.849
	c0-2.013-1.812-3.092-4.978-3.978c2.961,0.407,7.802,1.079,11.299,1.558c-2.745,0.117-3.855,0.857-4.135,2.839
	c0,0-2.563,18.585-3.019,21.92c-0.672-0.085-1.555-0.208-1.555-0.208h-0.005c0-0.123-32.581-25.602-32.581-25.602l-0.957-0.746
	l-0.336,1.176l-2.106,15.368c-0.04,0.299-0.068,0.572-0.068,0.834c0,2.164,1.936,3.155,4.96,3.984
	c-3.001-0.416-7.421-1.028-11.327-1.563C452.809,79.017,454.403,78.456,454.699,76.269"/>
<path fill="#BD2A33" d="M545.152,98.035l-28.025-7.361l0.251-0.94c5.786,1.279,7.688,1.703,8.509-1.452l5.165-19.772
	c-5.536-1.296-13.662-3.232-16.795,2.36l-2.277-0.601l2.209-7.475l47.086,12.361l-1.822,7.588l-2.267-0.595
	c0-6.427-8.03-8.73-13.423-10.305l-5.154,19.782c-0.843,3.183,1.025,3.755,6.783,5.47L545.152,98.035z"/>
<path fill="#004677" d="M511.113,70.771l3.485,0.911l0.263-0.467c2.768-4.935,9.863-3.417,15.319-2.147
	c-0.348,1.364-4.967,19.041-4.967,19.041c-0.614,2.35-1.537,2.31-7.665,0.951l-0.66-0.145l-0.615,2.255l29.38,7.716l0.587-2.27
	l-0.649-0.193c-5.034-1.498-6.486-2.039-6.486-3.534c0-0.308,0.063-0.669,0.176-1.091c0,0,4.112-15.769,4.978-19.075
	c5.086,1.495,12.222,3.768,12.222,9.425v0.53l3.485,0.922l2.141-8.947l-48.395-12.705L511.113,70.771z M514.667,63.632
	c0.404,0.111,8.354,2.201,15.046,3.955c-5.353-1.213-12.289-2.366-15.609,2.526c-0.302-0.083-0.718-0.194-1.247-0.333
	C513.158,68.76,514.377,64.611,514.667,63.632 M526.559,88.465c0,0,5.256-20.121,5.308-20.311c5.387,1.415,6.064,1.597,11.446,3.001
	c-0.079,0.194-0.216,0.516-0.216,0.516l-5.166,19.781c-0.142,0.541-0.21,1.031-0.21,1.463c0,1.521,1.116,2.412,2.808,3.184
	c-5.325-1.396-13.742-3.61-18.766-4.929C524.28,91.426,525.909,90.979,526.559,88.465 M546.923,72.106
	c5.684,1.492,13.145,3.459,13.515,3.554c-0.239,0.991-1.247,5.194-1.498,6.227c-0.523-0.139-0.934-0.245-1.241-0.327
	C557.254,76.223,551.855,73.698,546.923,72.106"/>
<path fill="#BD2A33" d="M588.53,113.79l-26.447-10.339l0.348-0.902c4.146,1.415,7.147,2.426,8.019,0.179l6.828-17.478
	c0.934-2.384-2.597-3.841-6.025-5.311l0.354-0.906l26.458,10.339l-0.358,0.905c-3.571-1.313-7.227-2.693-8.184-0.233l-6.822,17.472
	c-0.9,2.315,2.084,3.602,6.185,5.37L588.53,113.79z"/>
<path fill="#004677" d="M570.353,80.313l0.797,0.344c3.6,1.538,6.105,2.75,5.479,4.337l-6.822,17.483
	c-0.609,1.552-2.996,0.829-7.153-0.589l-0.626-0.214l-0.849,2.176l27.74,10.846l0.854-2.181l-0.614-0.268
	c-4.129-1.78-6.436-2.865-5.804-4.473l6.817-17.478c0.648-1.663,3.371-0.812,7.152,0.584l0.78,0.291l0.256-0.635l0.604-1.558
	l-27.752-10.84L570.353,80.313z M571.104,102.978l6.828-17.472c0.143-0.37,0.211-0.729,0.211-1.065c0-1.167-0.831-2.096-2.056-2.898
	c5.058,1.97,12.324,4.812,17.198,6.717c-1.987-0.373-3.719-0.245-4.413,1.529l-6.822,17.472c-0.148,0.396-0.223,0.757-0.223,1.102
	c0,1.159,0.849,2.064,2.147,2.896c-5.496-2.144-14.602-5.706-18.486-7.224C568.086,104.724,570.307,105.008,571.104,102.978"/>
<path fill="#BD2A33" d="M645.28,139.502c-6.743-0.256-13.423-1.387-22.358-6.7c-16.247-9.67-21.783-20.371-18.081-26.604
	c4.021-6.777,17.142-6,31.8,2.699c6.276,3.739,10.673,8.574,12.489,9.645c1.885,1.127,2.933,0.794,4.117,0.381l1.88,1.119
	l-4.624,7.808l-1.743-1.051c-0.718-4.342-4.26-11.731-12.216-16.461c-10.183-6.06-15.929-2.571-19.277,3.066
	c-1.189,2.008-2.676,5.447-1.36,9.126c1.509,4.14,6.714,7.918,8.878,9.203c5.438,3.244,11.265,5.348,18.896,5.692L645.28,139.502z"
	/>
<path fill="#004677" d="M610.501,101.48c-2.876,0.729-4.977,2.198-6.264,4.362c-3.634,6.122,0.614,17.005,18.326,27.555
	c8.85,5.259,15.467,6.523,22.688,6.806l1.492,0.051l-2.518-3.261c-7.386-0.569-13.121-2.298-19.089-5.86
	c-2.369-1.407-7.21-5.074-8.571-8.841c-1.173-3.283,0.057-6.444,1.299-8.525c1.816-3.061,4.077-4.952,6.714-5.621
	c3.212-0.823,7.124,0.117,11.606,2.793c8.093,4.804,11.276,12.304,11.88,15.977c0.336,0.49,2.078,1.529,2.078,1.529l0.599,0.362
	l5.342-9.01l-2.483-1.475c-1.64,0.307-2.472,0.606-4.111-0.373l-2.734-2.241L637,108.303
	C626.994,102.349,617.079,99.806,610.501,101.48 M623.281,132.202c-13.429-7.99-18.816-16.176-18.816-21.875
	c0-1.429,0.33-2.699,0.974-3.772c1.088-1.831,2.904-3.087,5.404-3.728c5.171-1.307,12.688,0.584,20.604,4.422
	c-2.631-0.829-5.046-1.011-7.21-0.456c-3.019,0.763-5.558,2.867-7.574,6.256c-0.99,1.663-1.97,3.955-1.97,6.498
	c0,1.037,0.159,2.116,0.558,3.218c1.492,4.134,6.47,7.967,9.175,9.576c6.156,3.662,12.067,5.441,19.141,5.769
	c-0.006,0.006-0.023,0.012-0.023,0.029c0,0.068,0.194,0.336,0.331,0.546C637.416,138.301,631.276,136.954,623.281,132.202
	 M649.113,126.208c-0.331-3.121-2.449-7.75-6.476-11.874c1.709,1.292,3.195,2.426,3.195,2.426l2.949,2.383
	c2.153,1.29,3.463,0.857,4.613,0.456c-0.012,0.006-0.034,0.006-0.034,0.012c0,0.111,0.422,0.401,0.82,0.66
	c-0.535,0.914-3.371,5.678-3.918,6.618C649.739,126.581,649.113,126.208,649.113,126.208"/>
<path fill="#004677" d="M743.033,114.414C672.456,43.842,540.191,0,397.861,0C178.698,0,0.41,102.053,0.41,227.506
	c0,39.779,18.067,78.884,52.273,113.087c70.58,70.583,202.836,114.429,345.178,114.429c142.33,0,274.595-43.846,345.172-114.429
	c34.198-34.203,52.28-73.308,52.28-113.087C795.313,187.73,777.231,148.617,743.033,114.414 M58.971,120.712
	C127.948,51.75,257.795,8.898,397.861,8.898c140.053,0,269.908,42.852,338.874,111.814c9.92,9.921,18.389,20.249,25.41,30.884
	h-26.214c-6.646-9.952-14.584-19.61-23.839-28.859C647.7,58.344,527.299,18.352,397.861,18.352
	c-153.503,0-284.925,55.346-337.717,133.244H33.58C40.585,140.966,49.056,130.633,58.971,120.712 M717.361,302.776
	c-52.735,69.39-176.099,118.184-319.5,118.184c-125.431,0-241.573-38.225-303.126-99.786c-5.977-5.969-11.33-12.131-16.105-18.397
	H717.361z M79.114,151.596c4.653-6.057,9.855-11.982,15.621-17.763C156.289,72.294,272.431,34.05,397.861,34.05
	c125.428,0,241.576,38.244,303.121,99.783c5.78,5.78,10.957,11.706,15.627,17.763H79.114z M397.861,446.12
	c-140.066,0-269.914-42.849-338.891-111.82c-10.105-10.108-18.742-20.655-25.835-31.523H59.35
	c6.731,10.174,14.824,20.06,24.283,29.514c64.387,64.381,184.792,104.388,314.229,104.388c129.438,0,249.839-40.007,314.231-104.388
	c9.454-9.454,17.535-19.34,24.283-29.514h26.3C708.027,386.346,565.118,446.12,397.861,446.12"/>
<path fill="#FFFFFF" d="M699.205,190.156c0-8.212,6.47-14.755,14.643-14.755c8.172,0,14.642,6.543,14.642,14.755
	c0,8.218-6.47,14.747-14.642,14.747C705.675,204.903,699.205,198.374,699.205,190.156 M702.406,190.156
	c0,6.578,5.119,11.558,11.441,11.558c6.315,0,11.435-4.98,11.435-11.558c0-6.612-5.119-11.558-11.435-11.558
	C707.525,178.598,702.406,183.544,702.406,190.156 M720.646,197.736h-3.49l-3.571-6.093h-2.677v6.093h-3.194v-15.308h7.438
	c3.531,0,5.945,0.632,5.945,4.684c0,2.822-1.446,4.351-4.163,4.531L720.646,197.736z M715.22,188.897
	c1.714,0,2.745-0.376,2.745-2.047c0-1.668-2.039-1.668-3.52-1.668h-3.537v3.716H715.22z"/>
<polygon fill="#FFFFFF" points="116.774,250.682 116.774,279.281 82.688,279.281 82.688,175.979 163.76,175.979 165.683,199.103 
	116.774,199.103 116.774,227.555 159.315,227.555 159.315,250.682 "/>
<path fill="#FFFFFF" d="M219.269,227.845c0-24.3,5.046-31.407,24.907-31.407c19.858,0,24.896,7.107,24.896,31.407
	c0,24.312-5.037,31.439-24.896,31.439C224.314,259.284,219.269,252.157,219.269,227.845 M185.475,227.845
	c0,35.135,19.71,54.538,58.7,54.538c38.979,0,58.684-19.109,58.684-54.538c0-35.408-19.405-54.531-58.684-54.531
	C204.9,173.313,185.475,192.727,185.475,227.845"/>
<path fill="#FFFFFF" d="M385.361,218.224c20.453,3.26,32.458,11.552,31.866,30.812c-0.889,24.314-12.894,34.397-57.801,32.763
	c-8.303-0.291-18.825-2.816-27.717-5.627l3.26-24.015c6.968,2.964,19.419,5.78,26.533,6.071c12.603,0.461,21.034,0.165,21.344-7.842
	c0.296-8.155-4.456-6.822-21.635-10.678c-18.679-4.294-35.719-9.331-34.984-30.972c1.185-32.903,35.274-35.574,54.389-34.833
	c8.896,0.299,21.04,1.634,32.305,4.741c-0.74,7.116-2.221,23.275-2.221,23.275c-7.107-3.266-18.822-5.046-28.595-5.481
	c-16.159-0.45-21.8,0.592-22.09,9.488C359.717,214.513,365.648,215.108,385.361,218.224"/>
<path fill="#FFFFFF" d="M503.699,218.224c20.467,3.26,32.461,11.552,31.88,30.812c-0.899,24.314-12.905,34.397-57.815,32.763
	c-8.291-0.291-18.821-2.816-27.711-5.627l3.258-24.015c6.971,2.964,19.431,5.78,26.532,6.071
	c12.603,0.461,21.043,0.165,21.345-7.842c0.296-8.155-4.448-6.822-21.641-10.678c-18.668-4.294-35.719-9.331-34.973-30.972
	c1.185-32.903,35.269-35.574,54.397-34.833c8.885,0.299,21.037,1.634,32.308,4.741c-0.746,7.116-2.227,23.275-2.227,23.275
	c-7.107-3.266-18.827-5.046-28.611-5.481c-16.15-0.45-21.783,0.592-22.073,9.488C478.061,214.513,483.994,215.108,503.699,218.224"
	/>
<rect x="568.404" y="175.979" fill="#FFFFFF" width="34.888" height="103.303"/>
<polygon fill="#FFFFFF" points="722.737,255.861 720.96,279.281 639.454,279.281 639.454,176.124 674.342,176.124 674.342,255.861 
	"/>
<polygon points="584.703,544.756 584.578,544.739 584.578,544.551 "/>
<path fill-rule="evenodd" clip-rule="evenodd" d="M273.487,526.566c-0.316,0-1.179-0.08-1.797-0.604
	c-3.5-2.888-0.145-9.425,4.402-9.756c0.886-0.063,2.736,0.165,3.417,1.179c1.367,2.039-1.503,6.932-2.916,8.03
	C275.754,526.065,274.891,526.532,273.487,526.566 M470.788,556.527c-1.054,1.737-2.956,3.503-4.556,4.869
	c-3.662,3.041-11.373,5.49-16.636,3.184c-3.906-1.714-5.877-5.364-7.711-10.468c-3.781,1.453-6.936,3.491-9.772,5.815
	c-0.763,8.906-3.086,16.708-4.777,24.823c-0.416,1.999-1.999,7.17-2.353,7.984c-1.492,3.435-3.206,6.105-7.096,7.387
	c-6.054,3.121-11.128-2.848-12.232-5.979c-1.025-2.791-0.866-6.367-0.484-8.44c1.862-10.615,10.496-18.815,16.965-26.168
	c0.923-1.054,2.438-2.215,2.905-3.126c0.99-1.999,0.865-5.388,1.024-8.115c0.183-2.968,0.649-5.895,0.479-8.491
	c-2.79,7.267-8.61,17.142-16.834,19.978c-4.385,1.492-8.497-2.227-8.884-6.48c-5.325,4.362-18.173,4.254-18.591-4.636
	c-0.8,0.228-1.373,1.395-1.985,2.323c-2.315,3.542-5.555,9.135-11.792,7.762c-3.625-0.803-5.592-2.637-6.811-6.355
	c-2.933,2.734-6.788,6.236-11.871,4.927c-6.176-1.584-6.688-9.613-6.23-17.302c-1.783,3.64-2.95,7.284-5.293,10.735
	c-2.008,2.938-6.381,8.212-10.971,8.844c-3.574,0.524-6.723-1.577-8.426-3.838c-2.093-2.813-2.631-4.374-4.547-11.892
	c-1.68-6.668-0.333-10.729-1.837-13.554c-0.188-0.364-0.882-1.247-1.697-0.956c-0.561,0.102-1.102,0.302-1.646,0.563
	c-5.231,2.693-9.533,11.378-10.513,16.908c-0.461,2.802,1.637,17.546-5.769,13.019c-2.409-1.446-1.552-6.88-2.409-9.909
	c-2.99,4.101-6.899,11.925-14.363,9.744c-2.722-0.78-4.101-3.531-4.59-7.568c-0.757-6.43-1.737-15.787,2.893-17.712
	c0.384-0.131,1.407-0.33,1.942,0.735c2.142,4.14-0.629,13.582,2.509,16.555c2.11,1.999,4.67-0.604,5.538-2.836
	c1.236-3.161,4.101-21.401,7.449-21.789c2.332-0.302,2.677,5.615,4.938,5.895c1.731,0.211,4.061-3.771,4.801-4.653
	c2.366-2.864,10.607-14.567,15.692-8.257c1.982,2.46,2.397,7.921,3.078,13.063c0.496,3.611,0.962,7.455,1.506,10.309
	c0.541,2.87,2.25,6.947,3.83,7.563c3.238,1.31,5.943-1.68,7.563-3.821c3.01-6.185,6.8-12.773,9.18-19.573
	c1.113-3.246,3.622-9.557,5.191-16.345c-0.245,0.046-0.478,0.097-0.734,0.131c-6.002,1.088-12.62,3.206-17.461,0.991
	c-0.083-2.546,0.752-3.286,1.341-4.949c2.87-1.366,7.107-2.136,11.39-2.643c2.082-0.228,4.391-0.678,6.694-1.11
	c0.1-1.48,0.14-2.955,0.046-4.368c-0.029-1.161-0.123-2.768,1.119-3.524c4.55-2.797,5.78,1.064,5.681,6.646
	c0.555-0.091,1.084-0.183,1.608-0.256c5.909-0.718,12.107-1.315,18.207-1.737c3.821-0.268,7.244-1.458,10.684-0.74
	c-0.1,0.501,0.404,0.342,0.427,0.734c-0.461,1.1-1.085,2.027-1.797,2.876c-9.277,2.403-19.403,4.63-29.858,6.617
	c-0.834,5.792-2.181,11.333-2.403,12.666c-1.037,5.837-2.543,11.851-2.99,17.244c-0.183,2.301-0.328,4.863,0.228,6.566
	c1.304,3.98,6.845,4.089,9.237,0.803c1.614-4.465,1.671-11.355,3.394-16.652c1.287-3.963,3.061-8.252,5.444-11.298
	c2.252-2.882,7.438-5.069,11.233-1.721c1.347,1.452,1.626,4.693,0.222,6.214c-1.925,1.298-3.283-0.684-5.279-0.394
	c-2.56,0.428-5.387,7.803-6.04,10.388c-1.569,6.174-3.949,11.538,0.373,16.532c4.263,4.938,8.263-1.828,10.356-9.823
	c1.691-6.413,1.825-13.787,2.298-15.069c1.068-2.802,4.909-8.371,7.05-3.257c0.291,7.187-1.635,13.309-1.581,19.658
	c0.034,2.096,1.598,6.009,2.734,7.222c3.161,3.36,9.447,0.803,11.19-2.648c0.268-0.529,0.074-7.409,2.91-14.026
	c3.564-8.292,8.007-14.465,16.116-18.622c2.222-1.162,4.505-2.062,6.896-1.937c1.817,0.085,3.451,0.706,4.562,2.102
	c2.313,2.898,2.717,9.105,2.723,12.705c-0.018,8.246-1.321,16.168-1.595,24.676c2.648-1.014,6.031-2.949,9.044-4.231
	c-1.293-8.411,2.209-15.519,5.894-20.911c3.354-4.966,9.46-10.878,12.569-12.096c3.081-1.219,7.893,0.483,9.738,4.168
	c0.523,1.054,0.649,3.338,0.684,3.924c0.079,1.042-0.08,2.665-0.422,3.981c-2.591,10.541-9.271,21.1-20.172,24.853
	c0.434,4.578,3.73,7.482,7.552,7.386c4.431-0.108,9.249-6.048,10.171-10.706c0.456-2.284-0.575-4.454,0.729-6.043
	c0.068-0.068,0.193-0.238,0.398-0.302c0.183-0.063,0.393-0.011,0.479-0.005C474.706,542.518,473.151,552.592,470.788,556.527
	 M421.601,520.125c-4.675,3.235-16.993,14.824-14.089,30.395c0.08,0.444,0.706,1.868,1.601,1.561
	c3.331-0.53,9.276-6.481,14.562-19.442c1.595-3.907,4.009-10.132,1.281-12.774C424.539,519.516,422.677,519.38,421.601,520.125
	 M425.007,565.395c-0.023-0.12-0.023-0.257-0.239-0.193c-2.739,2.915-5.229,6.526-7.905,11.07c-2.79,4.67-9.567,16.248-3.154,17.894
	c4.533,1.23,6.782-5.199,7.95-9.077C423.537,579.017,424.096,572.001,425.007,565.395 M455.44,538.048
	c1.423-1.526,4.636-7.022,5.41-9.676c1.07-3.896,0.449-6.982-4.499-3.161c-4.191,3.218-8.349,13.622-8.155,18.782
	c0,0,0.228,0.199,3.673-2.529C452.832,540.713,453.959,539.625,455.44,538.048 M238.683,531.556
	c-0.601-3.087-2.244-11.646-3.01-15.735c-0.453-2.58-0.954-8.264-2.973-9.642c-2.204-1.492-5.026,2.836-5.208,5.535
	c-0.262,3.571,2.887,14.505,3.522,18.247c1.541,9.135,4.434,23.896,7.355,32.107c1.298,3.645,3.89,8.246,6.879,9.249
	c3.494,1.207,4.824-1.037,5.74-3.73c0.359-1.064,2.961-8.639,3.759-10.78c1.985-5.291,3.155-11.345,4.357-16.043
	c1.244-4.994,2.665-11.271,3.528-16.76c1.407-8.97,1.797-28.907-0.589-30.092c-1.922-0.975-4.052-1.225-5.276,0.039
	c-0.974,0.979-0.322,3.708-0.128,5.645c0.729,7.887-0.022,16.674-0.678,23.725c-0.413,4.442-2.115,16.771-5.871,25.508
	c-0.985,2.261-3.09,6.72-3.947,7.989C241.92,552.034,240.357,539.607,238.683,531.556"/>
<path d="M731.519,546.914c0.302-0.381,0.877-0.028,1.19,0.108c1.293,0.598,1.999,2.021,1.805,3.69
	c-0.25,2.084-0.626,3.839-1.594,5.285c-1.407,2.067-3.213,3.695-5.456,5.211c-0.9,0.609-3.901,1.754-6.709,1.39
	c-1.6-0.211-4.441-2.045-5.519-5.188c-0.541-1.709-0.518-4.761-0.751-6.321c-0.063-0.358-0.621,0.461-0.935,0.74
	c-2.608,2.232-6.299,5.718-10.137,7.039c-1.851,0.644-2.557,0.421-3.958,0.284c-1.629-0.62-2.768-1.765-3.702-3.154
	c-1.082-1.629-1.788-3.907-1.6-6.657l1.651-15.963c-2.5,1.816-8.97,3.775-11.646,4.67c-0.723,3.023-2.004,7.181-2.608,9.214
	c-0.854,2.87-2.402,5.251-4.009,7.397c-1.167,1.589-2.397,3.149-3.94,4.425c-2.928,2.438-10.866,5.206-14.796-0.409
	c-0.979-1.361-2.084-4.084-2.005-6.521c-2.522,2.113-6.07,4.716-8.394,6.715c0,0,0.113,23.195-1.242,29.511
	c-2.647,12.369-10.558,11.709-15.33,10.41c-3.372-0.922-7.574-4.954-7.574-10.752c0-5.797,3.559-15.968,8.462-22.278
	c1.299-1.663,7.791-8.172,8.662-9.545c0.154-1.503,0.229-2.677,0.229-5.017c0-2.341,0.017-5.319-0.564-8.013
	c-0.08-0.342-0.563-0.581-0.814-0.205c-1.862,2.528-3.035,5.825-4.801,8.439c-2.01,2.99-3.906,6.902-7.995,8.503
	c-4.078,1.583-7.683-3.6-8.28-5.519c-0.609-1.948-0.513-3.976-0.513-3.976c-0.444-4.84,0.113-9.441,0.045-14.032
	c-0.045-2.802-0.25-5.672-0.797-8.212c-0.325-1.571-0.803-3.075-1.088-4.807c-0.097-0.74,0.233-1.4,0.393-1.97
	c0.57-0.792,1.15-1.743,2.256-1.982c2.882-0.615,3.405,3.053,3.958,5.661c0.563,2.585,1.412,12.665,1.372,19.42
	c-0.012,1.936-0.479,6.332,1.549,7.232c3.759,1.668,6.971-11.06,6.971-11.06c0.291-2.563,4.521-21.527,4.818-22.729
	c0.797-3.286,2.796-6.521,5.911-3.776c1.811,1.971,2.979,4.927,2.893,8.907c-0.125,5.684,0.695,17.489,0.707,17.706
	c0.022,3.206,0.182,6.452,0.552,9.282c4.386-2.033,7.717-6.076,9.175-8.138c0.547-2.87,1.879-8.201,2.517-10.154
	c1.561-4.562,3.662-8.417,6.516-11.578c1.782-1.976,6.372-5.718,12.858-3.52c0.593,0.205,1.128,0.456,1.606,0.74
	c3.61,2.153,4.453,6.971,4.527,9.46c0.034,1.201,0.04,2.625-0.022,3.604c3.023-0.387,6.589-2.796,7.443-3.564
	c3.075-2.495,6.07-4.693,9.157-7.165c2.062-1.662,3.354,0.786,3.485,1.048c0.672,1.128,0.467,2.859,0.285,4.294
	c-0.308,2.54-4.488,12.427-3.258,21.59c0.416,3.195,3.144,3.121,4.362,2.898c2.369-0.421,6.771-4.988,7.858-8.906
	c0.382-1.39,1.857-7.574,3.013-11.339c1.168-3.765,2.58-6.241,3.765-7.421c1.925-1.925,3.337-1.275,3.6-1.185
	c1.959,0.599,1.014,4.938,0.683,6.892c-1.002,6.446-2.482,12.357-3.24,19.112c-0.489,4.328-0.177,6.378,0.786,7.352
	c1.566,1.566,3.115,0.279,4.015-0.29C731.092,551.437,731.143,547.393,731.519,546.914 M678.009,538.116
	c-5.022-0.444-8.485-3.326-10.103-7.233c-3.224,4.967-5,10.24-5.068,14.283c-0.063,9.362,5.843,8.992,7.802,7.739
	C675.127,550.047,676.802,543.036,678.009,538.116 M642.871,565.765c-0.147,0-0.479,0.632-0.501,0.655
	c-0.222,0.176-5.393,6.344-7.307,9.339c-1.424,2.21-3.058,5.001-3.639,9.05c-0.593,4.117,1.697,6.259,3.041,7.112
	c1.754,1.1,4.978-0.74,5.877-2.01c2.244-3.992,2.084-8.913,1.925-13.479C642.171,573.846,642.939,568.737,642.871,565.765
	 M679.034,526.259c-0.843-1.766-3.292-2.272-5.325-1.173c0,0-0.814,0.513-0.683,0.797c0.443,0.957,1.35,1.868,2.215,2.574
	c1.025,0.86,2.005,1.635,3.548,1.982C679.324,529.368,679.877,528.024,679.034,526.259"/>
<path d="M742.914,510.165c2.158-8.97,9.642-11.446,13.548-12.637c8.656-2.637,22.62,8.696,11.652,21.339
	c-5.809,6.669-17.7,14.157-17.393,18.201c0.268,4.055,4.761,5.74,5.991,6.845c0.501,0.444,0.501,0.638,0.012,1.082
	c-0.86,0.764-3.885,3.941-10.935-2.369c-1.344-1.195-3.093-5.763,1.304-11.458c4.408-5.734,14.607-13.816,16.767-18.264
	c2.044-4.191-1.407-11.076-7.956-8.28c-3.759,1.601-6.743,4.276-8.497,7.683C746.838,513.395,742.396,512.352,742.914,510.165"/>
<path d="M757.886,554.864c0.103,2.375-2.545,4.163-4.043,4.875c-2.244,1.036-5.245,2.25-7.085-0.336
	c-1.195-1.686,0.444-3.998,2.067-5.091C753.74,550.986,757.761,552.273,757.886,554.864"/>
<path d="M590.717,546.129c0.912,2.437-0.899,7.277-1.161,8.013c-1.754,4.852-5.615,7.745-5.615,7.745
	c-0.991,1.002-4.487,1.708-6.8,1.321c-4.049-0.639-6.333-3.515-7.654-6.948c-0.41-1.014-0.791-1.896-1.44-4.521
	c-0.666-2.643-0.718-7.142-0.49-9.078c-0.654-0.262-5.079-1.629-7.83-5.66c-1.583-2.318-2.802-4.961-3.485-6.88
	c-0.684-1.913-0.547-2.478-1.11-2.711c-0.37-0.148-0.792,0.364-0.974,0.547l-3.531,4.374c-1.959,3.188-2.858,5.045-3.622,9.305
	c-0.284,1.578-0.444,3.229-0.444,4.841c0,0.41-0.188,3.019-0.188,3.372c0,4.299,0.688,8.252-0.826,12.187
	c-0.364,1.116-1.971,1.902-3.24,2.142c-0.199,0.057-0.786,0.057-1.025,0c-0.358-0.086-2.329,0.724-2.511-8.047
	c-0.023-1.179,0.079-2.278,0.216-4.026c-6.674,8.878-17.586,8.628-20.399-0.911c-0.849,0.837-1.4,1.902-2.004,2.824
	c-0.957,1.447-4.75,5.148-7.54,5.462c-1.048,0.119-2.506,0.177-3.742,0c-1.03-0.143-2.175-0.37-2.921-0.951
	c-1.982-1.498-2.779-4.083-3.31-7.051c-0.21-1.145-0.438-2.471-0.541-3.639c-0.159-2.13-0.159-3.753-0.017-5.774
	c0.29-4.356,1.623-7.842,3.013-11.225c0.797-2.922,3.6-7.393,4.966-9.09c1.344-1.708,3.912-3.474,3.912-3.474
	c1.305-0.889,4.636-1.161,5.963-0.706c1.299,0.456,3.298,1.731,3.992,2.882c0.479,0.809,0.285,1.766,0.028,2.643
	c-0.444,1.429-2.277,2.528-4.021,1.702c-0.501-0.239-0.979-0.678-1.515-0.644c-1.629,0.205-2.415,1.544-3.075,2.546
	c-0.632,1.008-1.544,3.001-1.812,3.479c-0.604,1.048-0.854,2.085-1.253,3.212c-1.605,4.493-2.744,10.001-2.653,15.309
	c0.017,1.424,1.07,2.494,2.563,3.229c1.492,0.74,3.896-1.521,4.71-3.023c0.694-1.424,1.503-2.803,1.981-4.283
	c0.074-0.143,0.541-1.213,0.729-1.68c1.999-4.471,4.129-8.833,5.712-13.543c0.558-1.611,0.957-3.285,1.748-4.67
	c0.513-0.877,1.219-1.708,2.353-2.021c0.182-0.045,0.404-0.011,0.546,0.159c0.581,0.581,0.826,1.561,0.849,2.574
	c0.018,1.327-0.034,2.751-0.188,3.896c-0.837,5.297-2.757,12.256-2.928,14.716c-0.25,3.264,0.849,5.422,1.242,5.979
	c3.821,5.53,10.911-1.344,13.508-6.042c-0.193-5.404,0.422-13.002,1.174-17.751c0.136-0.963,0.803-4.511,1.139-5.399
	c0.33-0.888,1.879-2.619,3.94-2.744c0.114,0,0.513,0.125,0.53,0.131c1.076,0.74,1.623,1.828,1.782,3.343
	c0.199,1.571,0.057,3.292-0.046,4.835l-0.147,0.336l0.147-0.336c0.945-1.675,1.846-3.383,3.07-4.784
	c0.95-1.087,1.68-2.408,2.853-3.285c0.792-0.615,1.641-1.196,2.534-1.629c0.473-0.229,1.305-0.569,2.033-0.569
	c0.718,0,1.72,0.626,2.198,1.252c1.396,1.755,1.72,8.03,2.176,9.505c1.321,4.237,4.886,7.563,7.42,8.583
	c0.404-0.564,0.633-2.062,0.929-2.729c1.196-2.705,4.96-8.604,7.854-11.185c2.067-1.856,5.883-3.457,7.876-3.753
	c1.981-0.302,4.658,0.547,5.342,1.116c3.309,2.723,3.063,6.116,2.232,8.907c-1.697,5.694-4.157,9.493-6.037,11.486
	c-2.733,2.893-5.507,5.018-10.467,5.672c-1.578,0.302-3.815-0.222-3.918-0.199c-0.33,0.08-0.467,1.339-0.467,1.771
	c0,0,0.193,4.596,1.765,7.13c1.196,1.896,2.039,2.916,3.947,2.916c2.38,0,3.24-1.76,3.741-2.558
	c0.598-0.956,1.868-3.747,2.347-4.829c0.079-0.131,1.668-4.841,3.65-4.841c0.324,0,0.859-0.079,1.258,0.171
	C590.387,544.961,590.387,545.257,590.717,546.129 M586.036,524.209c-0.935,0.147-1.731,0.547-2.46,0.945
	c-1.686,0.957-2.91,2.522-4.181,3.924c-1.731,1.862-5.193,7.067-5.193,8.468c0.137,0.052,2.307,1.492,3.525,1.492
	c3.388,0,6.771-3.884,8.234-6.15c1.48-2.272,1.993-5.199,1.993-6.646C587.955,524.772,586.64,524.078,586.036,524.209"/>
<path fill-rule="evenodd" clip-rule="evenodd" d="M186.349,526.361c0.188-1.35,0.626-6.241,1.279-12.017
	c10.054-1.509,19.249-3.041,19.844-3.645c1.318-1.31-0.219-4.612-1.982-4.612c-0.706,0-8.007,0.604-16.8,1.412
	c0.1-0.484,0.168-0.951,0.179-1.396c-0.074-5.587-1.102-8.075-4.564-7.922c-1.452,0.063-2.38,3.839-2.315,5.006
	c0.063,0.667-0.299,2.791-0.7,5c-11.239,1.071-22.621,2.272-24.936,2.865c-2.113,0.547-3.181,4.134-2.27,5.034
	c0.903,0.911,5.442,1.879,6.979,1.879c0.672,0,9.314-1.127,18.958-2.506c-1.27,6.436-1.749,13.185-2.677,16.242
	c-1.842,5.82-4.098,11.401-6.862,16.658c-2.17,3.958-5.78,6.304-8.585,7.033v-0.006c-1.253,0.41-1.808-0.456-2.275-0.974
	c-1.119-1.214-2.623-5.16-2.623-7.25c0.051-6.355,2.053-12.438,1.836-19.607c-2.081-5.183-5.994,0.342-7.084,3.144
	c-0.49,1.253-0.723,8.656-2.508,15.046c-2.187,7.956-6.282,14.682-10.479,9.687c-4.228-5.074-1.813-10.404-0.165-16.555
	c0.706-2.563,3.616-9.909,6.17-10.297c2.019-0.296,3.354,1.721,5.291,0.444c1.453-1.48,1.202-4.738-0.139-6.196
	c-3.756-3.416-8.958-1.286-11.262,1.572c-2.415,3.013-4.257,7.278-5.581,11.196c-1.791,5.296-2.788,10.729-2.927,14.294
	c-0.017,0.479,0.005,0.957,0.051,1.446c-0.163,0.023-0.325,0.098-0.484,0.239c-1.62,1.657-3.761,3.081-6.193,2.067
	c-1.575-0.638-3.229-4.755-3.725-7.625c-0.496-2.865-0.917-6.703-1.347-10.319c-0.632-5.154-0.979-10.639-2.922-13.109
	c-5-6.373-13.386,5.228-15.812,8.047c-0.746,0.877-3.118,4.835-4.858,4.606c-0.687-0.107-0.891-8.918-0.931-10.752
	c0.589-6.412-0.048-30.854-1.127-34.004c-1.119-3.252-2.902-3.115-3.412-3.093c-0.991,0.046-2.039,1.578-2.699,3.952
	c-0.256,0.935-0.43,2.005-0.552,3.167c-0.134,1.275-0.16,2.711-0.123,4.169c0.017,1.229,0.418,11.748,0.869,22.802
	c-1.453,4.784-2.854,9.693-3.434,11.174c-0.866,2.232-5.191,5.724-5.542,2.836c-0.356-2.967-1.019-12.192-3.155-16.333
	c-0.544-1.07-2.175-1.104-2.554-0.979c-4.095,1.697-2.822,9.22-1.942,15.376c0.322,4.966,0.473,11.862-1.441,18.064
	c-1.051,3.429-3.708,2.859-4.869,2.403c-2.244-0.883-5.675-6.686-5.965-11.174c-0.1-1.594-0.322-8.645-0.718-12.989
	c-0.396-4.34-1.301-7.302-2.232-8.811c-1.512-2.449-3.021-1.981-3.303-1.942c-2.045,0.313-1.977,5.245-2.039,7.455
	c-0.293,7.238-0.011,14.004-0.601,21.544c-0.385,4.841-1.096,7.027-2.241,7.928c-1.842,1.44-3.118-0.239-3.895-1.02
	c-1.085-1.1-3.597-4.704-4.653-9.237c-0.783-3.371-0.917-6.259-1.15-9.772c-0.39-5.906,1.133-14.181,1.173-14.448
	c0.239-1.543-0.233-2.397-0.774-2.665c-2.438-1.213-4.368,0-5.034,2.751c-0.191,0.785-1.563,9.191-1.33,13.474
	c0.222,4.032,0.288,8.451,1.028,12.324c0.769,4.015,2.565,7.711,3.357,9.419c1.133,2.449,4.491,8.469,12.102,8.964
	c1.603,0.114,4.769-1.458,6.455-4.704c0.863-1.776,1.452-5.137,2.001-6.811c0.123-0.382,0.513,0.614,0.769,0.979
	c2.116,2.927,5.063,7.397,8.574,9.539c1.694,1.024,2.438,0.916,3.841,1.008c1.726-0.388,3.072-1.441,4.263-2.813
	c1.389-1.583,2.537-3.958,2.898-7.005c0,0,0.886-6.686,1.33-12.119c4.812,0.046,7.4-4.18,9.698-7.631
	c0.279,6.47,0.507,11.379,0.589,12.096c0.146,1.538,0.268,2.842,0.233,3.771c0.419,3.439-0.1,8.429,2.278,9.943
	c7.355,4.624,5.418-10.166,5.942-12.968c1.04-5.507,5.476-14.135,10.738-16.748c0.535-0.263,1.091-0.444,1.626-0.541
	c0.846-0.308,1.518,0.609,1.703,0.968c1.469,2.858,0.077,6.908,1.663,13.582c1.808,7.546,2.332,9.124,4.402,11.932
	c1.663,2.295,4.786,4.425,8.363,3.98c2.472-0.325,4.758-2.13,6.922-3.861c0.117-0.091,0.205-0.199,0.296-0.324
	c1.19,3.297,3.098,5,6.481,5.797c6.239,1.458,9.533-4.083,11.902-7.608c0.618-0.905,1.23-2.084,2.004-2.283
	c0.157,4.202,3.109,6.48,6.737,7.267h0.04c1.33,0.165,3.3,0.233,5.581-0.672c3.83-1.532,5.499-3.514,6.1-4.362
	c0.589-0.843,3.004-4.089,3.471-4.949c1.444-2.648,2.495-4.516,3.87-7.261c-0.558,7.659,0.644,18.093,6.794,19.75
	c5.063,1.378,9.844-4.249,11.939-8.042c2.412-4.396-0.345-9.151-2.854-4.874c-2.856,4.863-8.485,6.788-9.727,2.802
	c-0.541-1.709-0.362-7.466-0.134-9.75C184.974,538.515,185.498,532.228,186.349,526.361"/>
</svg>
