<?xml version="1.0" encoding="utf-8"?>
<!-- Generator: Adobe Illustrator 14.0.0, SVG Export Plug-In . SVG Version: 6.00 Build 43363)  -->
<!DOCTYPE svg PUBLIC "-//W3C//DTD SVG 1.0//EN" "http://www.w3.org/TR/2001/REC-SVG-20010904/DTD/svg10.dtd">
<svg version="1.0" id="Ebene_1" xmlns="http://www.w3.org/2000/svg" xmlns:xlink="http://www.w3.org/1999/xlink" x="0px" y="0px"
	 width="595.112px" height="529.731px" viewBox="0 0 595.112 529.731" enable-background="new 0 0 595.112 529.731"
	 xml:space="preserve">
<g>
	<path fill="#008AC2" d="M219.352,174.059c-37.544,0-85.033,17.818-109.505,40.088V79.875L1.267,118.868v326.031l108.58-42.828
		V262.572c15.822-12.792,35.256-20.575,50.365-20.575c25.196,0,38.154,11.674,38.154,35.586v89.58l108.568-42.816v-52.868
		C306.934,203.575,280.151,174.059,219.352,174.059"/>
	<polygon fill="#002851" points="167.429,420.707 151.407,420.707 151.407,447.317 136.053,447.317 136.053,383.138 
		151.407,383.138 151.407,408.769 167.429,408.769 167.429,383.138 182.784,383.138 182.784,447.317 167.429,447.317 	"/>
	<path fill="#002851" d="M208.27,423.274c0-9.393,2.425-14.618,7.572-14.618c5.13,0,7.561,5.226,7.561,14.618
		c0,9.369-2.431,14.893-7.561,14.893C210.695,438.167,208.27,432.643,208.27,423.274 M192.911,423.274
		c0,14.526,7.959,24.818,22.931,24.818c14.956,0,22.915-10.292,22.915-24.818c0-14.344-7.959-24.547-22.915-24.547
		C200.87,398.727,192.911,408.93,192.911,423.274"/>
	<path fill="#002851" d="M282.405,446.084c-4.314,1.097-8.719,2.008-13.404,2.008c-18.84,0-23.045-15.415-23.045-24.146
		c0-14.71,8.609-25.22,24.164-25.22c4.872,0,7.503,1.198,11.815,2.305l-0.747,10.979c-2.727-1.026-5.54-2.032-8.627-2.032
		c-11.251,0-11.251,12.121-11.251,13.969c0,10.11,6.379,13.328,12,13.328c3.099,0,5.917-1.096,8.625-2.099L282.405,446.084z"/>
	<path fill="#002851" d="M289.571,378.393h14.8v28.151h0.189c1.684-5.328,7.103-7.817,12.433-7.817
		c10.773,0,14.333,7.715,14.333,17.276v31.313h-14.802v-29.475c0-5.969-2.703-7.521-5.698-7.521c-4.771,0-6.455,4.029-6.455,10.179
		v26.816h-14.8V378.393z"/>
	<path fill="#002851" d="M370.742,411.463c-3.927-1.564-7.579-2.58-11.892-2.58c-3.858,0-5.559,1.85-5.559,3.504
		c0,2.956,2.181,3.972,10.248,6.915c5.056,1.85,10.189,4.987,10.189,14.024c0,10.659-8.123,14.766-17.983,14.766
		c-4.325,0-10.864-0.454-16.021-2.28l0.388-11.206c3.55,2.133,8.034,3.331,12.153,3.331c6.962,0,7.429-2.396,7.429-4.519
		s-3.857-3.048-10.236-5.637c-5.146-2.101-10.19-6.163-10.19-14.745c0-5.157,3.743-14.32,18.258-14.32
		c6.117,0,11.161,1.106,13.581,1.94L370.742,411.463z"/>
	<path fill="#002851" d="M416.09,446.084c-4.302,1.097-8.717,2.008-13.409,2.008c-18.816,0-23.039-15.415-23.039-24.146
		c0-14.71,8.627-25.22,24.169-25.22c4.885,0,7.498,1.198,11.823,2.305l-0.766,10.979c-2.703-1.026-5.521-2.032-8.614-2.032
		c-11.253,0-11.253,12.121-11.253,13.969c0,10.11,6.368,13.328,12.005,13.328c3.082,0,5.901-1.096,8.628-2.099L416.09,446.084z"/>
	<path fill="#002851" d="M423.256,378.393h14.813v28.151h0.183c1.688-5.328,7.099-7.817,12.438-7.817
		c10.772,0,14.333,7.715,14.333,17.276v31.313h-14.812v-29.475c0-5.969-2.705-7.521-5.695-7.521c-4.769,0-6.447,4.029-6.447,10.179
		v26.816h-14.813V378.393z"/>
	<path fill="#002851" d="M517.149,437.322c0,4.587,0.093,7.53,0.378,9.995h-13.502c-0.182-2.099-0.364-4.77-0.364-7.952h-0.192
		c-2.249,5.249-5.991,8.74-13.752,8.74c-10.773,0-14.333-7.727-14.333-17.288v-31.324h14.813v29.487
		c0,5.956,2.705,7.519,5.706,7.519c4.747,0,6.437-4.038,6.437-10.2v-26.806h14.811V437.322z"/>
	<rect x="527.957" y="378.393" fill="#002851" width="14.8" height="68.924"/>
	<path fill="#002851" d="M566.401,419.279c0-2.566,0-11.731,7.566-11.731c6.083,0,7.669,5.672,7.669,11.731H566.401z
		 M595.112,423.707c0-24.979-16.751-24.979-21.145-24.979c-13.933,0-21.602,11.663-21.602,24.523
		c0,14.642,7.577,24.842,24.694,24.842c5.054,0,10.657-1.003,15.438-2.761l-0.285-10.944c-3.651,1.94-8.695,3.779-13.763,3.779
		c-8.308,0-12.05-5.25-12.05-10.955h28.711V423.707z"/>
	<polygon fill="#002851" points="0,463.898 9.956,463.898 22.726,503.598 22.868,503.598 35.929,463.898 45.605,463.898 
		45.605,513.835 39.438,513.835 39.438,470.757 39.284,470.757 24.843,513.835 20.181,513.835 6.31,470.757 6.168,470.757 
		6.168,513.835 0,513.835 	"/>
	<path fill="#002851" d="M75.282,500.54c0,5.067-3.338,9.324-8.656,9.324c-4.233,0-6.276-2.534-6.276-6.413
		c0-4.246,3.423-7.635,10.635-7.635c1.682,0,3.201,0,4.296,0.137V500.54z M58.152,485.444c2.129-2.272,5.774-3.756,9.559-3.756
		c2.55,0,4.957,0.64,6.196,2.26c1.169,1.564,1.375,3.172,1.375,5.911v1.666h-3.56c-12.765,0-17.529,5.228-17.529,12.358
		c0,7.03,4.616,10.512,10.75,10.512c5.689,0,8.741-2.637,10.414-5.41h0.148l0.364,4.851h5.553c-0.143-1.29-0.296-3.436-0.296-5.582
		v-19.057c0-5.181-1.599-7.371-3.201-8.946c-1.182-1.141-4.452-3.424-9.917-3.424c-3.645,0-7.435,1.074-10.522,3.014L58.152,485.444
		z"/>
	<path fill="#002851" d="M94.532,495.61c0-9.185,2.533-13.922,8.12-13.922c5.597,0,8.136,4.737,8.136,13.922
		c0,9.176-2.539,13.911-8.136,13.911C97.065,509.521,94.532,504.786,94.532,495.61 M116.957,484.04c0-2.214,0.222-4.519,0.291-6.664
		h-5.946l-0.222,5.236h-0.143c-2.032-3.502-5.375-5.785-9.065-5.785c-8.297,0-13.507,6.141-13.507,18.783
		c0,12.622,5.209,18.772,12.839,18.772c4.067,0,7.337-1.996,9.733-6.15h0.143v5.728c0,6.255-2.898,10.602-10.379,10.602
		c-3.336,0-7.571-1.426-10.213-3.138l-0.291,6.083c2.721,1.084,7.749,2.225,10.87,2.225c8.131,0,15.891-4.233,15.891-14.265V484.04z
		"/>
	<path fill="#002851" d="M146.272,495.61c0,9.187-2.539,13.924-8.125,13.924c-5.585,0-8.129-4.737-8.129-13.924
		c0-9.185,2.544-13.922,8.129-13.922C143.733,481.688,146.272,486.425,146.272,495.61 M152.439,460.145h-6.167v22.183h-0.143
		c-2.465-3.856-5.22-5.501-9.443-5.501c-7.629,0-12.826,6.152-12.826,18.783c0,12.622,5.197,18.785,12.826,18.785
		c5.374,0,8.147-3.014,9.733-5.867h0.155l0.222,5.318h5.933c-0.068-2.236-0.291-4.519-0.291-6.732V460.145z"/>
	<path fill="#002851" d="M165.735,492.838c0.153-8.593,3.656-11.491,7.604-11.491c4.914,0,7.321,3.833,7.321,11.491H165.735z
		 M186.828,497.368v-3.173c0-10.817-4.695-17.368-13.111-17.368c-9.29,0-14.384,7.271-14.384,18.783
		c0,11.504,5.094,18.785,14.966,18.785c3.732,0,7.525-0.8,10.47-2.135l-0.291-5.432c-2.129,1.507-5.5,3.035-8.577,3.035
		c-6.801,0-10.167-3.972-10.167-12.496H186.828z"/>
	<path fill="#002851" d="M199.511,495.61c0-9.197,2.534-13.922,8.12-13.922c5.587,0,8.131,4.725,8.131,13.922
		c0,9.176-2.544,13.911-8.131,13.911C202.045,509.521,199.511,504.786,199.511,495.61 M193.338,507.103
		c0,2.225-0.222,4.507-0.291,6.732h5.94l0.233-5.318h0.137c1.604,2.864,4.359,5.865,9.733,5.865c7.629,0,12.844-6.15,12.844-18.772
		c0-12.643-5.215-18.794-12.844-18.794c-4.215,0-6.978,1.655-9.443,5.512h-0.137v-22.172h-6.173V507.103z"/>
	<path fill="#002851" d="M255.759,505.973c0,2.635,0.224,5.294,0.297,7.862h-5.951l-0.224-5.41h-0.135
		c-1.974,4.167-5.119,5.945-9.443,5.945c-6.523,0-10.928-3.651-10.928-11.673v-25.322h6.167v23.53c0,5.785,2.198,8.309,6.151,8.309
		c4.822,0,7.896-3.31,7.896-9.884v-21.955h6.168V505.973z"/>
	<path fill="#002851" d="M264.94,485.238c0-2.637-0.222-5.283-0.291-7.862h5.944l0.224,5.683h0.143
		c1.974-4.429,5.107-6.219,10.583-6.219v5.944c-0.724-0.147-1.529-0.228-2.333-0.228c-4.748,0-8.102,4.006-8.102,11.971v19.309
		h-6.167V485.238z"/>
	<path fill="#002851" d="M291.317,495.61c0-9.185,2.55-13.922,8.131-13.922c5.584,0,8.124,4.737,8.124,13.922
		c0,9.176-2.539,13.911-8.124,13.911C293.867,509.521,291.317,504.786,291.317,495.61 M313.74,484.04
		c0-2.214,0.218-4.519,0.285-6.664h-5.928l-0.222,5.236h-0.154c-2.031-3.502-5.375-5.785-9.067-5.785
		c-8.295,0-13.494,6.141-13.494,18.783c0,12.622,5.199,18.772,12.826,18.772c4.081,0,7.344-1.996,9.735-6.15h0.154v5.728
		c0,6.255-2.911,10.602-10.391,10.602c-3.338,0-7.561-1.426-10.197-3.138l-0.307,6.083c2.721,1.084,7.749,2.225,10.868,2.225
		c8.131,0,15.891-4.233,15.891-14.265V484.04z"/>
	<path fill="#002851" d="M353.715,476.281c6.938,0,12.53,5.59,12.53,12.528c0,6.95-5.592,12.53-12.53,12.53s-12.53-5.58-12.53-12.53
		C341.185,481.871,346.776,476.281,353.715,476.281"/>
	<path fill="#002851" d="M416.581,471.053c-2.407-1.426-5.558-2.294-8.686-2.294c-4.813,0-7.941,3.23-7.941,7.475
		c0,3.229,1.302,5.238,8.604,9.402c7.874,4.452,10.498,8.833,10.498,14.584c0,7.965-5.033,14.175-14.812,14.175
		c-4.063,0-7.943-0.868-10.647-2.146v-6.506c2.921,1.713,6.722,3.241,9.711,3.241c5.751,0,9.039-3.812,9.039-7.896
		c0-3.88-1.026-6.117-7.875-10.202c-9.197-5.466-11.24-8.547-11.24-15.018c0-8.263,6.424-12.518,14.151-12.518
		c3.354,0,6.925,0.719,9.197,1.632V471.053z"/>
	<path fill="#002851" d="M443.613,513.458c-1.459,0.501-3.513,0.937-5.191,0.937c-5.647,0-8.65-2.226-8.65-8.662v-23.496h-5.909
		v-4.861h5.909v-7.439l6.175-1.781v9.221h7.667v4.861h-7.667v21.557c0,4.164,1.083,5.74,3.869,5.74c1.528,0,2.624-0.436,3.798-0.937
		V513.458z"/>
	<path fill="#002851" d="M453.725,492.838c0.16-8.593,3.663-11.491,7.612-11.491c4.907,0,7.314,3.833,7.314,11.491H453.725z
		 M474.824,497.368v-3.173c0-10.817-4.701-17.368-13.111-17.368c-9.29,0-14.378,7.271-14.378,18.783
		c0,11.504,5.088,18.785,14.961,18.785c3.731,0,7.542-0.8,10.464-2.135l-0.285-5.432c-2.135,1.507-5.513,3.035-8.571,3.035
		c-6.801,0-10.179-3.972-10.179-12.496H474.824z"/>
	<path fill="#002851" d="M481.889,485.238c0-2.637-0.206-5.283-0.296-7.862h5.956l0.217,5.421h0.138
		c1.984-4.167,5.122-5.957,9.437-5.957c6.527,0,10.932,3.663,10.932,11.685v25.312h-6.162v-23.541c0-5.774-2.19-8.287-6.162-8.287
		c-4.816,0-7.896,3.288-7.896,9.873v21.955h-6.162V485.238z"/>
	<path fill="#002851" d="M538.102,495.61c0,9.187-2.533,13.924-8.125,13.924c-5.593,0-8.124-4.737-8.124-13.924
		c0-9.185,2.531-13.922,8.124-13.922C535.568,481.688,538.102,486.425,538.102,495.61 M544.274,460.145h-6.173v22.183h-0.137
		c-2.465-3.856-5.227-5.501-9.448-5.501c-7.624,0-12.839,6.152-12.839,18.783c0,12.622,5.215,18.785,12.839,18.785
		c5.386,0,8.136-3.014,9.744-5.867h0.137l0.217,5.318h5.945c-0.068-2.236-0.285-4.519-0.285-6.732V460.145z"/>
	<path fill="#002851" d="M572.268,500.54c0,5.067-3.344,9.324-8.661,9.324c-4.233,0-6.266-2.534-6.266-6.413
		c0-4.246,3.412-7.635,10.625-7.635c1.677,0,3.206,0,4.302,0.137V500.54z M555.127,485.444c2.135-2.272,5.774-3.756,9.563-3.756
		c2.556,0,4.952,0.64,6.196,2.26c1.175,1.564,1.381,3.172,1.381,5.911v1.666h-3.561c-12.77,0-17.528,5.228-17.528,12.358
		c0,7.03,4.61,10.512,10.749,10.512c5.672,0,8.741-2.637,10.408-5.41h0.148l0.364,4.851h5.558c-0.147-1.29-0.296-3.436-0.296-5.582
		v-19.057c0-5.181-1.599-7.371-3.219-8.946c-1.164-1.141-4.439-3.424-9.905-3.424c-3.652,0-7.416,1.074-10.509,3.014
		L555.127,485.444z"/>
	<rect x="587.673" y="460.145" fill="#002851" width="6.162" height="53.69"/>
	<path fill="#002851" d="M401.414,148.435H284.39v-33.533l26.247-17.357c8.502-5.711,27.375-20.889,35.661-28.58
		c7.143-6.591,10.818-13.625,10.818-20.883c0-9.244-5.98-15.389-14.95-15.389c-11.513,0-17.492,8.131-19.103,25.276l-38.673-7.035
		C290.61,17.653,312.017,0,345.385,0c33.425,0,56.726,18.743,56.726,45.885c0,18.463-7.382,30.56-28.607,46.382
		c-4.838,3.737-6.928,5.055-30.194,20.438h59.727L401.414,148.435z"/>
</g>
</svg>
