<svg xmlns="http://www.w3.org/2000/svg" viewBox="0 0 115.594 209.378"><path d="M92.427 104.552a9.86 9.86 0 0 0 .814-2.774c.375-2.876-9.777-3.925-9.777-3.925-.015.038 5.706 6.079 5.697 6.038 0 0-3.871 2.561-11.945 6.546-4.886-.853-9.671-1.929-13.673-3.19.201-.097.4-.191.602-.29 14.997-7.33 38.665-21.893 46.221-30.986 15.43-18.568-9.608-14.417-18.47-12.16l1.856-6.383-9.779 5.44-4.964-2.713 11.717-32.159-17.082 7.555L58.188.957 41.556 39.684l-15.642-8.549 4.857 21.473-9.937-7.53 4.701 20.174c-1.203-.478-3.496-1.243-7.79-2.268-37.331-8.905-9.659 25.474 32.049 44.082-5.598 1.838-11.779 3.376-17.655 4.509-4.385-3.218-7.004-6.367-7.065-9.119l5.529-5.529c-.835-.54-6.496-.08-8.474 3.474-10.765 2.019-18.88 7.723-19.661 11.917-.941 5.055 10.576 8.949 29.251 5.632 2.742 2.251 6.193 4.59 10.515 6.82-9.312 3.214-20.075 6.536-32.361 9.762-.126.033.503-2.716.503-2.716-4.377 1.121-3.351 5.792-1.073 6.134 1.46.674 21.229-3.058 41.22-9.505 12.108 4.599 29.105 8.058 52.852 8.082 2.64.003 4.629-2.957-1.414-6.043 0 0 .736 2.074 1.029 3.343-13.372-.497-29.018-3.992-42.768-8.738 6.938-2.582 13.534-5.469 18.986-8.589 6.336 1.205 12.724 1.849 19.025 1.769 5.558 0 16.219-1.439 16.715-3.857.833-4.065-16.059-8.36-22.521-9.86zm12.987-31.08c-3.889 4.445-12.023 10.172-20.881 15.661l6.344-21.817c8.213-2.464 25.08-5.894 14.537 6.156zM74.441 57.657l-17.144-9.37 28.526-15.069-11.382 24.439zM58.081 8.371L68.832 37.68l-17.103 7.565-5.549-3.033L58.081 8.371zM30.34 36.836l48.258 29.022-17.497 9.734-24.088-18.254-6.673-20.502zm25.756 41.54l-19.738 10.98-10.36-36.116 30.098 25.136zM26.51 69.44l4.585 19.677C8.525 73.334-5.698 57.044 26.51 69.44zm12.244 24.802l49.964-30.388-10.796 29.261a399.612 399.612 0 0 1-17.148 9.486 56.781 56.781 0 0 1-4.055 1.894c-5.858-2.895-12.038-6.46-17.965-10.253zM7.252 111.864c.122-1.743 5.739-6.379 14.202-8.36a9.02 9.02 0 0 0 .405 2.168c.206.668 1.34 3.375 4.361 6.927-10.698 1.623-19.133 1.622-18.968-.735zm43.776 9.752c-4.178-1.728-8.041-3.548-11.444-5.398 5.448-1.423 11.35-3.412 17.609-6.082a137.327 137.327 0 0 0 12.09 4.025c-5.068 2.271-11.139 4.798-18.255 7.455zm35.265-9.855c2.245-1.806 4.033-3.669 5.244-5.578 24.929 6.378 12.048 7.621-5.244 5.578z" fill="#eb2229"/><path d="M104.586 153.184l-.157 3.892a308.775 308.775 0 0 1-7.938-1.538c4.474-3.017 7.324-5.314 7.978-6.215 3.118-4.298.883-8.434-.878-8.434 0 0 .293 1.814.488 4.156-.926.974-6.195 4.55-14.008 9.102a411.11 411.11 0 0 1-27.781-7.341c23.343-9.881 37.698-20 39.579-22.277 1.576-1.907 1.241-3.349.941-3.956-.645-1.304-4.465-1.301-4.465-1.301-.004.004 1.581 3.279 1.577 3.283.002-.002-22.954 10.965-47.45 21.149-17.686-5.845-32.857-12.327-40.44-17.807.006.006 1.634-4.69 1.634-4.69-2.276-.446-6.847 4.654-2.918 8.863 5.297 5.675 17.958 11.924 32.731 17.303-6.34 2.535-12.606 4.921-18.435 6.957-9.494-4.337-16.211-7.743-16.628-7.854.14-.246.414-4.051.414-4.051-4.297 1.007-4.043 4.134-3.105 6.095.356.745.987 2.668 10.984 7.964.235.124.486.253.725.378-3.108.974-6.015 1.802-8.642 2.438-.081.019-.23-3.446-.23-3.446-3.492 1.612-2.998 7.864.512 7.182a266.09 266.09 0 0 0 14.259-3.183c5.321 2.614 11.156 5.267 16.897 7.606a375.972 375.972 0 0 0 12.708 4.923c-13.287 5.251-27.037 9.103-38.389 8.965-.212-.003-2.082-4.409-2.082-4.409-1.439.587-2.331 8.049 3.797 7.962 14.609-.209 29.954-4.503 43.682-10.055 18.022 6.058 29.437 7.655 38.113 7.655 4.081-.468 6.581-3.445 2.753-6.983-.594-.549-.539 2.116-1.412 3.392 0 0-13.175-2.498-30.745-7.838a213.89 213.89 0 0 0 21.426-11.431c5.061.768 9.666 1.208 13.542 1.246 3.959.216 4.282-6.899.963-7.702zm-43.115 15.62a297.376 297.376 0 0 1-17.891-6.489 397.125 397.125 0 0 1-11.483-4.826 269.979 269.979 0 0 0 20.761-6.904c9.964 3.203 20.357 5.917 29.768 7.755-6.289 3.427-13.534 7.09-21.155 10.464z" fill="#cd2027"/><path d="M103.2 163.32c-.195 1.854-.473 2.894-.492 2.921-2.194 1.821-21.644 14.937-45.521 24.048-22.466-6.85-39.003-17.076-46.654-22.018-.124-.08-.963-3.638-.963-3.638-.713.314-2.988 3.932 1.605 7.597 13.108 10.461 26.555 16.855 38.391 20.766-4.766 1.567-9.647 2.923-14.551 3.961-8.528-2.917-15.199-5.839-16.302-7.645-.623-1.02-1.816-2.767-2.458-3.891-.394-.69-1.106 4.267 5.192 8.316a74.712 74.712 0 0 0 7.644 4.31c-1.23.191-2.459.361-3.685.505-.197.023-2.568-2.889-2.568-2.889-2.033 3.317.903 6.15 5.243 5.885 2.355-.215 4.677-.509 6.966-.868 3.739 1.489 8.157 2.959 13.335 4.241-8.305 1.594-12.912 1.442-12.917 1.441.596.113-3.745-2.354-3.745-2.354-3.286 4.707 7.429 4.922 8.988 4.922a80.515 80.515 0 0 0 17.682-1.97 151.42 151.42 0 0 0 12.981 1.538c.38.029 12.703.327 11.281-5.775l-5.022 3.367c-2.172.551-6.743.096-12.425-.976 5.573-1.771 10.451-3.967 14.619-6.161 3.957.246 6.331.16 6.571.178 4.499.336 6.119-3.501 4.709-5.045 0 0-1.932 2.474-2.205 2.45a146.45 146.45 0 0 1-4.026-.418c3.326-1.979 6.027-3.793 8.081-5.084 3.583-2.252 7.585-6.688 4.312-7.246 0 0-1.417 2.851-1.385 2.827a198.567 198.567 0 0 1-17.354 8.63 156.655 156.655 0 0 1-14.251-2.969c21.803-9.065 36.569-21.4 38.34-22.713 3.401-2.517 5.464-5.657.584-6.243zm-31.655 34.8c-5.728 2.208-10.878 3.832-15.367 5.017a258.49 258.49 0 0 1-13.889-3.831 127.65 127.65 0 0 0 14.501-4.161 123.665 123.665 0 0 0 14.755 2.975z" fill="#962022"/></svg>