<?xml version="1.0" encoding="UTF-8" standalone="no"?>
<!-- Created with Inkscape (http://www.inkscape.org/) -->

<svg
   xmlns:dc="http://purl.org/dc/elements/1.1/"
   xmlns:cc="http://creativecommons.org/ns#"
   xmlns:rdf="http://www.w3.org/1999/02/22-rdf-syntax-ns#"
   xmlns:svg="http://www.w3.org/2000/svg"
   xmlns="http://www.w3.org/2000/svg"
   xmlns:sodipodi="http://sodipodi.sourceforge.net/DTD/sodipodi-0.dtd"
   xmlns:inkscape="http://www.inkscape.org/namespaces/inkscape"
   width="183.27444"
   height="36.121811"
   viewBox="0 0 183.27444 36.12181"
   id="svg2"
   version="1.1"
   inkscape:version="0.91 r13725"
   sodipodi:docname="rocket internet.svg">
  <defs
     id="defs4" />
  <sodipodi:namedview
     id="base"
     pagecolor="#ffffff"
     bordercolor="#666666"
     borderopacity="1.0"
     inkscape:pageopacity="0.0"
     inkscape:pageshadow="2"
     inkscape:zoom="4.9514584"
     inkscape:cx="91.387217"
     inkscape:cy="17.810906"
     inkscape:document-units="px"
     inkscape:current-layer="layer1"
     showgrid="false"
     fit-margin-top="0"
     fit-margin-left="0"
     fit-margin-right="0"
     fit-margin-bottom="0"
     units="px"
     inkscape:window-width="1280"
     inkscape:window-height="744"
     inkscape:window-x="-4"
     inkscape:window-y="-4"
     inkscape:window-maximized="1" />
  <metadata
     id="metadata7">
    <rdf:RDF>
      <cc:Work
         rdf:about="">
        <dc:format>image/svg+xml</dc:format>
        <dc:type
           rdf:resource="http://purl.org/dc/dcmitype/StillImage" />
        <dc:title></dc:title>
      </cc:Work>
    </rdf:RDF>
  </metadata>
  <g
     inkscape:label="Layer 1"
     inkscape:groupmode="layer"
     id="layer1"
     transform="translate(-494.32707,-507.87019)">
    <g
       id="g3383"
       transform="translate(491.35151,502.56757)">
      <path
         id="path3337"
         d="m 57.4,18.7 0,-5.3 C 57.4,11 56.3,9.7 54.1,9.7 l -5.6,0 0,21.4 2.9,0 0,-8.7 1.7,0 1.9,8.7 2.7,0 -2,-8.9 c 1.2,-0.4 1.7,-1.6 1.7,-3.5 z m -2.8,-0.1 c 0,1 -0.4,1.6 -1.3,1.6 l -1.9,0 0,-7.7 1.9,0 c 0.9,0 1.3,0.5 1.3,1.6 l 0,4.5 z"
         inkscape:connector-curvature="0"
         style="fill:#ff0000" />
      <path
         id="path3339"
         d="m 65.8,9.8 -2.7,0 c -2.3,0 -3.4,1.2 -3.4,3.7 l 0,14.1 c 0,2.4 1.2,3.6 3.5,3.6 l 2.7,0 c 2.3,0 3.5,-1.2 3.5,-3.6 l 0,-14.1 C 69.2,11 68.1,9.8 65.8,9.8 Z m 0.6,17.6 c 0,0.8 -0.4,1.2 -1.1,1.2 l -1.5,0 c -0.9,0 -1.3,-0.4 -1.3,-1.2 l 0,-13.8 c 0,-0.8 0.4,-1.2 1.3,-1.2 l 1.3,0 c 0.9,0 1.3,0.4 1.3,1.2 l 0,13.8 z"
         inkscape:connector-curvature="0"
         style="fill:#ff0000" />
      <path
         id="path3341"
         d="m 76.9,9.8 -1.8,0 c -2.3,0 -3.4,1.2 -3.4,3.6 l 0,14.1 c 0,2.4 1.1,3.6 3.4,3.6 l 1.8,0 c 2.3,0 3.4,-1.2 3.4,-3.6 l 0,-1.4 -2.9,0 0,1.2 c 0,0.8 -0.4,1.2 -1.1,1.2 l -0.7,0 c -0.8,0 -1.1,-0.4 -1.1,-1.2 l 0,-13.7 c 0,-0.8 0.4,-1.2 1.1,-1.2 l 0.6,0 c 0.9,0 1.3,0.4 1.3,1.2 l 0,2.2 2.9,0 0,-2.4 C 80.3,11 79.2,9.8 76.9,9.8 Z"
         inkscape:connector-curvature="0"
         style="fill:#ff0000" />
      <rect
         id="rect3343"
         height="21.4"
         width="2.9000001"
         y="9.8000002"
         x="82.599998"
         style="fill:#ff0000" />
      <polygon
         id="polygon3345"
         points="85.6,20.5 85.6,20.7 89.2,31.2 92,31.2 88.2,20.4 91.2,9.8 88.6,9.8 "
         style="fill:#ff0000" />
      <polygon
         id="polygon3347"
         points="96.5,21.5 100.3,21.5 100.3,18.9 96.5,18.9 96.5,12.4 100.7,12.4 100.7,9.8 93.7,9.8 93.7,31.2 100.7,31.2 100.7,28.6 96.5,28.6 "
         style="fill:#ff0000" />
      <polygon
         id="polygon3349"
         points="101.8,9.8 101.8,12.4 104.5,12.4 104.5,31.2 107.4,31.2 107.4,12.4 110.1,12.4 110.1,9.8 "
         style="fill:#ff0000" />
      <rect
         id="rect3351"
         height="21.4"
         width="2.9000001"
         y="9.8000002"
         x="111.7"
         style="fill:#333333" />
      <polygon
         id="polygon3353"
         points="120.1,17.2 123.2,26.9 123.2,31.2 126.1,31.2 126.1,9.8 123.2,9.8 123.2,20.1 120.1,9.8 117.3,9.8 117.3,31.2 120.1,31.2 "
         style="fill:#333333" />
      <polygon
         id="polygon3355"
         points="127.7,12.4 130.4,12.4 130.4,31.2 133.3,31.2 133.3,12.4 136,12.4 136,9.8 127.7,9.8 "
         style="fill:#333333" />
      <polygon
         id="polygon3357"
         points="140.5,21.5 144.3,21.5 144.3,18.9 140.5,18.9 140.5,12.4 144.8,12.4 144.8,9.8 137.7,9.8 137.7,31.2 144.8,31.2 144.8,28.6 140.5,28.6 "
         style="fill:#333333" />
      <path
         id="path3359"
         d="m 155.7,18.7 0,-5.3 c 0,-2.4 -1.1,-3.7 -3.3,-3.7 l -5.6,0 0,21.4 2.9,0 0,-8.7 1.7,0 1.9,8.7 2.7,0 -2,-8.9 c 1.1,-0.4 1.7,-1.6 1.7,-3.5 m -2.9,-0.1 c 0,1 -0.4,1.6 -1.3,1.6 l -1.9,0 0,-7.7 1.9,0 c 0.9,0 1.3,0.5 1.3,1.6 l 0,4.5 z"
         inkscape:connector-curvature="0"
         style="fill:#333333" />
      <polygon
         id="polygon3361"
         points="161,17.2 164,26.9 164,31.2 166.9,31.2 166.9,9.8 164,9.8 164,20.1 161,9.8 158.1,9.8 158.1,31.2 161,31.2 "
         style="fill:#333333" />
      <polygon
         id="polygon3363"
         points="172.4,21.5 176.2,21.5 176.2,18.9 172.4,18.9 172.4,12.4 176.7,12.4 176.7,9.8 169.6,9.8 169.6,31.2 176.7,31.2 176.7,28.6 172.4,28.6 "
         style="fill:#333333" />
      <polygon
         id="polygon3365"
         points="177.7,9.8 177.7,12.4 180.4,12.4 180.4,31.2 183.3,31.2 183.3,12.4 186,12.4 186,9.8 "
         style="fill:#333333" />
      <g
         id="g3367">
	<path
   id="path3369"
   d="m 36.6,15.4 c 1.9,5.2 0.8,11.3 -3.4,15.5 -2.4,2.4 -5.4,3.8 -8.5,4.2 -0.8,1.1 -1.5,2.1 -2.2,2.9 4.2,-0.1 8.3,-1.7 11.5,-4.9 5.2,-5.2 6.3,-12.9 3.3,-19.1 -0.2,0.4 -0.4,0.9 -0.7,1.4 z"
   inkscape:connector-curvature="0"
   style="fill:#333333" />

	<path
   id="path3371"
   d="m 9.4,19.6 c 0.4,-3.1 1.8,-6 4.2,-8.3 C 17.7,7.1 23.8,6 29,7.8 29.5,7.6 29.9,7.3 30.4,7.1 24.2,4.2 16.6,5.4 11.4,10.5 8.3,13.6 6.6,17.7 6.5,21.8 7.3,21.1 8.3,20.4 9.4,19.6 Z"
   inkscape:connector-curvature="0"
   style="fill:#333333" />

	<ellipse
   id="ellipse3373"
   ry="2.2"
   rx="0.2"
   cy="7.6999998"
   cx="36.700001"
   transform="matrix(0.7069,0.7073,-0.7073,0.7069,16.2072,-23.73)"
   style="fill:#ff0000" />

	<path
   id="path3375"
   d="M 38.3,6.1 C 38.1,6 27.8,10.8 18.9,16.5 8,23.5 3.4,28.1 3.4,28.1 c -0.3,0.3 -0.2,0.6 0.2,0.6 0,0 8.6,0.3 10.2,1.9 1.6,1.6 1.9,10.2 1.9,10.2 0,0.4 0.3,0.5 0.6,0.2 0,0 4.6,-4.6 11.5,-15.5 C 33.6,16.6 38.5,6.3 38.3,6.1 Z"
   inkscape:connector-curvature="0"
   style="fill:#ff0000" />

</g>
    </g>
  </g>
</svg>
