<svg width="136" height="144" xmlns="http://www.w3.org/2000/svg">
 <style type="text/css">.st0{fill:#ff9119;}
	.st1{fill:#FFFFFF;}
	.st2{fill:url(#SVGID_1_);}
	.st3{fill:#f28918;}
	.st4{fill:url(#SVGID_3_);}
	.st5{fill:#151515;}</style>

 <g>
  <title>background</title>
  <rect fill="none" id="canvas_background" height="146" width="138" y="-1" x="-1"/>
 </g>
 <g>
  <title>Layer 1</title>
  <g id="svg_25">
   <path stroke="null" id="svg_2" d="m68.000003,135.700003l0,0c-35.2,0 -63.7,-28.5 -63.7,-63.7l0,0c0,-35.2 28.5,-63.7 63.7,-63.7l0,0c35.2,0 63.7,28.5 63.7,63.7l0,0c0,35.2 -28.5,63.7 -63.7,63.7z" class="st0"/>
   <g stroke="null" id="svg_3">
    <path stroke="null" id="svg_4" d="m80.500003,36.600003l-23.9,-0.3c-11.9,-0.2 -21.7,9.4 -21.9,21.3c-0.2,11.9 9.4,21.7 21.3,21.9l13.5,0.2l0,0l10.8,0.2c4.7,0.1 8.5,3.9 8.4,8.6c-0.1,4.7 -3.9,8.5 -8.6,8.4l-13.5,-0.2l-0.1,3.8l13.5,0.2c6.8,0.1 12.4,-5.4 12.5,-12.2c0.1,-6.8 -5.4,-12.4 -12.2,-12.5l-13.5,-0.2l0,0l-10.9,-0.2c-9.8,-0.1 -17.6,-8.2 -17.5,-18c0.1,-9.8 8.2,-17.6 18,-17.5l23.9,0.3l0.2,-3.8z" class="st1"/>
    <path stroke="null" id="svg_5" d="m55.900003,49.300003l13.5,0.2l0.1,-3.8l-13.5,-0.2c-6.8,-0.1 -12.4,5.4 -12.5,12.2c-0.1,6.8 5.4,12.4 12.2,12.5l13.5,0.2l0,0l10.9,0.2c9.8,0.1 17.6,8.2 17.5,18s-8.2,17.6 -18,17.5l-23.9,-0.3l-0.1,3.8l23.9,0.3c11.9,0.2 21.7,-9.4 21.9,-21.3c0.2,-11.9 -9.4,-21.7 -21.3,-21.9l-13.5,-0.2l0,0l-10.8,-0.2c-4.7,-0.1 -8.5,-3.9 -8.4,-8.6c-0.1,-4.7 3.8,-8.5 8.5,-8.4z" class="st1"/>
    <path stroke="null" id="svg_6" d="m78.500003,87.500003l0.1,-3.8l-23.1,-0.3c-14.1,-0.2 -25.4,-11.8 -25.2,-26c0.2,-14.1 11.8,-25.4 26,-25.2l33.5,0.5l0.1,-3.8l-33.5,-0.5c-16.2,-0.2 -29.6,12.8 -29.8,29c-0.2,16.2 12.8,29.6 29,29.8l22.9,0.3z" class="st1"/>
    <path stroke="null" id="svg_7" d="m80.500003,58.800003l-23.1,-0.3l-0.1,3.8l23.1,0.3c14.1,0.2 25.4,11.8 25.2,26c-0.2,14.1 -11.8,25.4 -26,25.2l-33.5,-0.5l-0.1,3.8l33.5,0.5c16.2,0.2 29.6,-12.8 29.8,-29s-12.5,-29.6 -28.8,-29.8z" class="st1"/>
   </g>
   <g stroke="null" id="svg_8">
    <path stroke="null" id="svg_9" d="m131.600003,69.700003c0,0.8 0.1,1.5 0.1,2.3l-0.1,-2.3l0,0z" class="st2"/>
    <path stroke="null" id="svg_10" d="m89.700003,27.800003l-0.1,3.8l-33.5,-0.5c-14.1,-0.2 -25.8,11.1 -26,25.2c-0.2,14.1 11.1,25.8 25.2,26l23.1,0.3l-0.1,3.8l-23.1,-0.3c-5.7,-0.1 -11.1,-1.8 -15.6,-4.7l23.2,23.2l16.4,0.2c9.8,0.1 17.8,-7.7 18,-17.5c0.1,-9.8 -7.7,-17.8 -17.5,-18l-10.9,-0.2l0,0l-13.5,-0.2c-6.8,-0.1 -12.3,-5.7 -12.2,-12.5c0.1,-6.8 5.7,-12.3 12.5,-12.2l13.5,0.2l-0.1,3.8l-13.5,-0.2c-4.7,-0.1 -8.6,3.7 -8.6,8.4c-0.1,4.7 3.7,8.6 8.4,8.6l10.8,0.2l0,0l13.5,0.2c11.9,0.2 21.4,10 21.3,21.9c-0.2,11.9 -10,21.4 -21.9,21.3l-23.9,-0.3l4.1,4.1l20.2,0.3c14.1,0.2 25.8,-11.1 26,-25.2c0.2,-14.1 -11.1,-25.8 -25.2,-26l-23.1,-0.3l0.1,-3.8l23.1,0.3c16.2,0.2 29.2,13.6 29,29.8c-0.2,16.2 -13.6,29.2 -29.8,29l-33.6,-0.4l19.4,19.4c0.8,0 1.6,0.1 2.5,0.1l0,0c35.2,0 63.7,-28.5 63.7,-63.7l0,0c0,-0.8 0,-1.5 -0.1,-2.3l-41.7,-41.8zm-9.3,11.6l-23.9,-0.3c-9.8,-0.1 -17.8,7.7 -18,17.5c-0.1,9.8 7.7,17.8 17.5,18l10.9,0.2l0,0l13.5,0.2c6.8,0.1 12.3,5.7 12.2,12.5c-0.1,6.8 -5.7,12.3 -12.5,12.2l-13.5,-0.2l0.1,-3.8l13.5,0.2c4.7,0.1 8.6,-3.7 8.6,-8.4c0.1,-4.7 -3.7,-8.6 -8.4,-8.6l-10.8,-0.2l0,0l-13.5,-0.2c-11.9,-0.2 -21.4,-10 -21.3,-21.9c0.2,-11.9 10,-21.4 21.9,-21.3l23.9,0.3l-0.2,3.8z" class="st0"/>
    <path stroke="null" id="svg_11" d="m89.700003,27.800003l-0.1,3.8l-33.5,-0.5c-14.1,-0.2 -25.8,11.1 -26,25.2c-0.2,14.1 11.1,25.8 25.2,26l23.1,0.3l-0.1,3.8l-23.1,-0.3c-5.7,-0.1 -11.1,-1.8 -15.6,-4.7l23.2,23.2l16.4,0.2c9.8,0.1 17.8,-7.7 18,-17.5c0.1,-9.8 -7.7,-17.8 -17.5,-18l-10.9,-0.2l0,0l-13.5,-0.2c-6.8,-0.1 -12.3,-5.7 -12.2,-12.5c0.1,-6.8 5.7,-12.3 12.5,-12.2l13.5,0.2l-0.1,3.8l-13.5,-0.2c-4.7,-0.1 -8.6,3.7 -8.6,8.4c-0.1,4.7 3.7,8.6 8.4,8.6l10.8,0.2l0,0l13.5,0.2c11.9,0.2 21.4,10 21.3,21.9c-0.2,11.9 -10,21.4 -21.9,21.3l-23.9,-0.3l4.1,4.1l20.2,0.3c14.1,0.2 25.8,-11.1 26,-25.2c0.2,-14.1 -11.1,-25.8 -25.2,-26l-23.1,-0.3l0.1,-3.8l23.1,0.3c16.2,0.2 29.2,13.6 29,29.8c-0.2,16.2 -13.6,29.2 -29.8,29l-33.6,-0.4l19.4,19.4c0.8,0 1.6,0.1 2.5,0.1l0,0c35.2,0 63.7,-28.5 63.7,-63.7l0,0c0,-0.8 0,-1.5 -0.1,-2.3l-41.7,-41.8zm-9.3,11.6l-23.9,-0.3c-9.8,-0.1 -17.8,7.7 -18,17.5c-0.1,9.8 7.7,17.8 17.5,18l10.9,0.2l0,0l13.5,0.2c6.8,0.1 12.3,5.7 12.2,12.5c-0.1,6.8 -5.7,12.3 -12.5,12.2l-13.5,-0.2l0.1,-3.8l13.5,0.2c4.7,0.1 8.6,-3.7 8.6,-8.4c0.1,-4.7 -3.7,-8.6 -8.4,-8.6l-10.8,-0.2l0,0l-13.5,-0.2c-11.9,-0.2 -21.4,-10 -21.3,-21.9c0.2,-11.9 10,-21.4 21.9,-21.3l23.9,0.3l-0.2,3.8z" class="st3"/>
    <polygon stroke="null" id="svg_12" points="89.69999694824219,27.799983024597168 89.69999694824219,27.799983024597168 89.69999694824219,27.799983024597168 " class="st0"/>
    <polygon stroke="null" id="svg_13" points="89.69999694824219,27.799983024597168 89.69999694824219,27.799983024597168 89.69999694824219,27.799983024597168 " class="st4"/>
   </g>
  </g>
 </g>
</svg>