<svg xmlns="http://www.w3.org/2000/svg" width="180" height="180"><defs><clipPath><path d="M0 144h144v-144h-144v144z"/></clipPath><clipPath><path d="M73.348 107.645h52.458v-71.922h-52.458v71.922z"/></clipPath><clipPath><path d="M26.336 108h13.834v-13.891h-13.834v13.891z"/></clipPath></defs><g><path d="M0 180h180v-180h-180v180z" fill="#164881"/><path d="M24.873 55.751l4.991-10.296 30.119 61.471 9.992-20.448 5.833-12.082s2.288-4.786 5.018-6.74c2.772-1.986 6.627-1.698 6.627-1.698l12.537.009-30.008 61.443s-2.776 7.287-9.525 7.884c-6.884.605-10.519-7.907-10.519-7.907l-25.064-51.16s-1.906-3.971-2.179-10.215c-.26-6.063 2.176-10.26 2.176-10.26" fill="#fff"/><path d="M155.056 55.734l-5.002-10.289-30.069 61.506-18.176-37.672-10.124 20.45 18.317 37.716s2.785 7.284 9.534 7.873c6.883.596 10.512-7.919 10.512-7.919l25.02-51.188s1.904-3.975 2.17-10.22c.255-6.062-2.182-10.257-2.182-10.257" fill="#fff" opacity=".8"/><path d="M32.92 45l8.61 17.364 8.682-17.364h-17.293z" fill="#fff" opacity=".8"/></g></svg>